<svg xmlns="http://www.w3.org/2000/svg" xmlns:xlink="http://www.w3.org/1999/xlink" width="534.303" height="160.09" viewBox="0 0 534.303 160.09">
  <defs>
    <linearGradient id="linear-gradient" x1="0.431" y1="0.005" x2="0.571" y2="0.995" gradientUnits="objectBoundingBox">
      <stop offset="0" stop-color="#be2026"/>
      <stop offset="1" stop-color="#cb2026"/>
    </linearGradient>
  </defs>
  <g id="caxpert-logo-new" transform="translate(-0.74 -5.76)">
    <g id="Group_87" data-name="Group 87">
      <g id="Group_2" data-name="Group 2">
        <path id="Path_1" data-name="Path 1" d="M134.9,58.04,168.91,6.26h306.9a17.209,17.209,0,0,1,17.1,17.1v69.8a17.15,17.15,0,0,1-17.1,17.1H170.26Z" fill="#72bf44"/>
        <g id="Group_1" data-name="Group 1">
          <path id="Path_2" data-name="Path 2" d="M134.9,58.04,168.91,6.26h306.9a17.209,17.209,0,0,1,17.1,17.1v69.8a17.15,17.15,0,0,1-17.1,17.1H170.26Z" fill="rgba(0,0,0,0)" stroke="rgba(0,0,0,0)" stroke-width="1"/>
        </g>
      </g>
      <g id="Group_4" data-name="Group 4">
        <path id="Path_3" data-name="Path 3" d="M165.35,113.58l-34.01,51.77H18.33a17.207,17.207,0,0,1-17.09-17.1V78.46a17.207,17.207,0,0,1,17.09-17.1H129.99Z" fill="#231f20"/>
        <g id="Group_3" data-name="Group 3">
          <path id="Path_4" data-name="Path 4" d="M165.35,113.58l-34.01,51.77H18.33a17.207,17.207,0,0,1-17.09-17.1V78.46a17.207,17.207,0,0,1,17.09-17.1H129.99Z" fill="rgba(0,0,0,0)" stroke="rgba(0,0,0,0)" stroke-width="1"/>
        </g>
      </g>
      <g id="Group_6" data-name="Group 6">
        <path id="Path_5" data-name="Path 5" d="M258.89,89.01a5.523,5.523,0,0,1-5.37,5.43,5.444,5.444,0,0,1-5.24-5.43V32.22c0-4.45,2.87-7.61,7.71-7.61h19.85a22.987,22.987,0,0,1,16.5,6.33c4.44,4.15,6.72,9.67,6.72,16.6,0,7.11-2.28,12.74-6.72,16.89s-10.17,6.22-17.29,6.22H258.89Zm16-28.84c8.99,0,13.54-4.15,13.54-12.55,0-7.8-4.44-12.55-13.14-12.55h-16.4v25.1Z" fill="#fff"/>
        <g id="Group_5" data-name="Group 5">
          <path id="Path_6" data-name="Path 6" d="M258.89,89.01a5.523,5.523,0,0,1-5.37,5.43,5.444,5.444,0,0,1-5.24-5.43V32.22c0-4.45,2.87-7.61,7.71-7.61h19.85a22.987,22.987,0,0,1,16.5,6.33c4.44,4.15,6.72,9.67,6.72,16.6,0,7.11-2.28,12.74-6.72,16.89s-10.17,6.22-17.29,6.22H258.89Zm16-28.84c8.99,0,13.54-4.15,13.54-12.55,0-7.8-4.44-12.55-13.14-12.55h-16.4v25.1Z" fill="rgba(0,0,0,0)" stroke="rgba(0,0,0,0)" stroke-width="1"/>
        </g>
      </g>
      <g id="Group_8" data-name="Group 8">
        <path id="Path_7" data-name="Path 7" d="M355.8,29.64a.34.34,0,0,0,.01.1,5.532,5.532,0,0,1-5.43,5.38H319.76V54.18h29.83a4.845,4.845,0,0,1,4.95,4.73v.22a5.165,5.165,0,0,1-4.95,4.93H319.76V83.63h30.92a5.487,5.487,0,0,1,5.37,5.23,5.219,5.219,0,0,1-5.21,5.24H317.28c-5.14,0-8.19-3.45-8.19-8.11V32.61c0-4.64,3.07-8,8.19-8h33.11C353.93,26.04,355.73,27.71,355.8,29.64Z" fill="#fff"/>
        <g id="Group_7" data-name="Group 7">
          <path id="Path_8" data-name="Path 8" d="M355.8,29.64a.34.34,0,0,0,.01.1,5.532,5.532,0,0,1-5.43,5.38H319.76V54.18h29.83a4.845,4.845,0,0,1,4.95,4.73v.22a5.165,5.165,0,0,1-4.95,4.93H319.76V83.63h30.92a5.487,5.487,0,0,1,5.37,5.23,5.219,5.219,0,0,1-5.21,5.24H317.28c-5.14,0-8.19-3.45-8.19-8.11V32.61c0-4.64,3.07-8,8.19-8h33.11C353.93,26.04,355.73,27.71,355.8,29.64Z" fill="rgba(0,0,0,0)" stroke="rgba(0,0,0,0)" stroke-width="1"/>
        </g>
      </g>
      <g id="Group_10" data-name="Group 10">
        <path id="Path_9" data-name="Path 9" d="M378.44,89.02a5.492,5.492,0,0,1-5.38,5.53,5.366,5.366,0,0,1-5.23-5.51V32.31c0-4.44,2.86-7.71,7.7-7.71h20.16a23.787,23.787,0,0,1,16.41,5.83c4.44,3.85,6.62,9.18,6.62,16,0,11.16-5.92,17.59-15.31,19.57,1.6,1.95,14.4,17.61,16,19.56a5.614,5.614,0,0,1-.3,7.53,5.254,5.254,0,0,1-7.42-.09c-.07-.07-.13-.14-.19-.21-1.73-2.14-15.56-19.21-17.29-21.34-1.88-2.27-3.07-3.16-5.54-3.16H378.39Q378.435,86.95,378.44,89.02ZM394.56,58.2c8.99,0,13.54-3.85,13.54-11.65s-4.3-11.66-13.04-11.66H378.44V58.21Q392.945,58.2,394.56,58.2Z" fill="#fff"/>
        <g id="Group_9" data-name="Group 9">
          <path id="Path_10" data-name="Path 10" d="M378.44,89.02a5.492,5.492,0,0,1-5.38,5.53,5.366,5.366,0,0,1-5.23-5.51V32.31c0-4.44,2.86-7.71,7.7-7.71h20.16a23.787,23.787,0,0,1,16.41,5.83c4.44,3.85,6.62,9.18,6.62,16,0,11.16-5.92,17.59-15.31,19.57,1.6,1.95,14.4,17.61,16,19.56a5.614,5.614,0,0,1-.3,7.53,5.254,5.254,0,0,1-7.42-.09c-.07-.07-.13-.14-.19-.21-1.73-2.14-15.56-19.21-17.29-21.34-1.88-2.27-3.07-3.16-5.54-3.16H378.39Q378.435,86.95,378.44,89.02ZM394.56,58.2c8.99,0,13.54-3.85,13.54-11.65s-4.3-11.66-13.04-11.66H378.44V58.21Q392.945,58.2,394.56,58.2Z" fill="rgba(0,0,0,0)" stroke="rgba(0,0,0,0)" stroke-width="1"/>
        </g>
      </g>
      <g id="Group_12" data-name="Group 12">
        <path id="Path_11" data-name="Path 11" d="M428.73,35.07a5.308,5.308,0,0,1-5.43-5.19v-.04a5.194,5.194,0,0,1,5.15-5.24h46.62a5.2,5.2,0,0,1,5.42,4.95,2.807,2.807,0,0,1,.01.29,5.435,5.435,0,0,1-5.43,5.23H457.28V89.01a5.284,5.284,0,0,1-5.13,5.43h-.25a5.532,5.532,0,0,1-5.38-5.43V35.07Z" fill="#fff"/>
        <g id="Group_11" data-name="Group 11">
          <path id="Path_12" data-name="Path 12" d="M428.73,35.07a5.308,5.308,0,0,1-5.43-5.19v-.04a5.194,5.194,0,0,1,5.15-5.24h46.62a5.2,5.2,0,0,1,5.42,4.95,2.807,2.807,0,0,1,.01.29,5.435,5.435,0,0,1-5.43,5.23H457.28V89.01a5.284,5.284,0,0,1-5.13,5.43h-.25a5.532,5.532,0,0,1-5.38-5.43V35.07Z" fill="rgba(0,0,0,0)" stroke="rgba(0,0,0,0)" stroke-width="1"/>
        </g>
      </g>
      <g id="Group_14" data-name="Group 14">
        <path id="Path_13" data-name="Path 13" d="M62.69,124.35a5.268,5.268,0,0,1,5.14,4.95,6.336,6.336,0,0,1-.59,2.67,24.187,24.187,0,0,1-9.97,11.76,28.812,28.812,0,0,1-15.41,4.3,27.6,27.6,0,0,1-20.05-7.9,30.575,30.575,0,0,1-8.8-19.96,85.1,85.1,0,0,1,0-15.8,30.285,30.285,0,0,1,8.8-19.86,26.991,26.991,0,0,1,19.94-7.92,29.034,29.034,0,0,1,15.52,4.3,24.02,24.02,0,0,1,9.99,11.75,5.716,5.716,0,0,1,.59,2.66,5.249,5.249,0,0,1-5.13,4.94,5.4,5.4,0,0,1-4.84-3.16A17.411,17.411,0,0,0,41.75,86.61a16.381,16.381,0,0,0-12.64,5.37c-3.23,3.46-5.04,8-5.54,13.44a112.431,112.431,0,0,0,0,13.98c.89,11.08,7.81,18.47,18.18,18.47a17.5,17.5,0,0,0,16.11-10.36A5.381,5.381,0,0,1,62.69,124.35Z" fill="#fff"/>
        <g id="Group_13" data-name="Group 13">
          <path id="Path_14" data-name="Path 14" d="M62.69,124.35a5.268,5.268,0,0,1,5.14,4.95,6.336,6.336,0,0,1-.59,2.67,24.187,24.187,0,0,1-9.97,11.76,28.812,28.812,0,0,1-15.41,4.3,27.6,27.6,0,0,1-20.05-7.9,30.575,30.575,0,0,1-8.8-19.96,85.1,85.1,0,0,1,0-15.8,30.285,30.285,0,0,1,8.8-19.86,26.991,26.991,0,0,1,19.94-7.92,29.034,29.034,0,0,1,15.52,4.3,24.02,24.02,0,0,1,9.99,11.75,5.716,5.716,0,0,1,.59,2.66,5.249,5.249,0,0,1-5.13,4.94,5.4,5.4,0,0,1-4.84-3.16A17.411,17.411,0,0,0,41.75,86.61a16.381,16.381,0,0,0-12.64,5.37c-3.23,3.46-5.04,8-5.54,13.44a112.431,112.431,0,0,0,0,13.98c.89,11.08,7.81,18.47,18.18,18.47a17.5,17.5,0,0,0,16.11-10.36A5.381,5.381,0,0,1,62.69,124.35Z" fill="rgba(0,0,0,0)" stroke="rgba(0,0,0,0)" stroke-width="1"/>
        </g>
      </g>
      <g id="Group_16" data-name="Group 16">
        <path id="Path_15" data-name="Path 15" d="M123.61,143.71q-.645-1.86-6.53-18.48H87.5q-5.865,16.725-6.52,18.58a4.81,4.81,0,0,1-4.94,3.37,5.09,5.09,0,0,1-5.15-5.02c0-.12,0-.24.01-.36a6.342,6.342,0,0,1,.3-1.98c1.97-5.49,17.74-49.4,19.72-54.89,1.97-5.64,5.82-8.5,11.46-8.5s9.38,2.86,11.46,8.5c1.96,5.49,17.7,49.43,19.66,54.93a5.523,5.523,0,0,1-4.91,7.31h-.04A4.906,4.906,0,0,1,123.61,143.71Zm-32.8-28.16h22.92q-8.445-24.09-9.39-26.77a1.912,1.912,0,0,0-1.97-1.49,1.958,1.958,0,0,0-2.08,1.49Q98.4,94.135,90.81,115.55Z" fill="#fff"/>
        <g id="Group_15" data-name="Group 15">
          <path id="Path_16" data-name="Path 16" d="M123.61,143.71q-.645-1.86-6.53-18.48H87.5q-5.865,16.725-6.52,18.58a4.81,4.81,0,0,1-4.94,3.37,5.09,5.09,0,0,1-5.15-5.02c0-.12,0-.24.01-.36a6.342,6.342,0,0,1,.3-1.98c1.97-5.49,17.74-49.4,19.72-54.89,1.97-5.64,5.82-8.5,11.46-8.5s9.38,2.86,11.46,8.5c1.96,5.49,17.7,49.43,19.66,54.93a5.523,5.523,0,0,1-4.91,7.31h-.04A4.906,4.906,0,0,1,123.61,143.71Zm-32.8-28.16h22.92q-8.445-24.09-9.39-26.77a1.912,1.912,0,0,0-1.97-1.49,1.958,1.958,0,0,0-2.08,1.49Q98.4,94.135,90.81,115.55Z" fill="rgba(0,0,0,0)" stroke="rgba(0,0,0,0)" stroke-width="1"/>
        </g>
      </g>
      <g id="Group_18" data-name="Group 18">
        <path id="Path_17" data-name="Path 17" d="M218.1,94.05q-1.23-2.01-12.42-20.06L193.8,94a2.185,2.185,0,0,1-1.85,1.08H173.13a2.149,2.149,0,0,1-1.78-3.34q2.205-3.33,22.07-33.32-18.2-26.64-20.21-29.6a2.149,2.149,0,0,1,1.77-3.36h19a2.156,2.156,0,0,1,1.84,1.08q1.02,1.725,10.31,17.2,9.135-15.48,10.15-17.2a2.16,2.16,0,0,1,1.85-1.08h18.35a2.157,2.157,0,0,1,1.78,3.35q-1.98,2.955-19.84,29.61,20.49,29.985,22.78,33.32a2.152,2.152,0,0,1-.56,2.99,2.123,2.123,0,0,1-1.22.38H219.93A3.266,3.266,0,0,1,218.1,94.05Z" fill="#fff"/>
        <g id="Group_17" data-name="Group 17">
          <path id="Path_18" data-name="Path 18" d="M218.1,94.05q-1.23-2.01-12.42-20.06L193.8,94a2.185,2.185,0,0,1-1.85,1.08H173.13a2.149,2.149,0,0,1-1.78-3.34q2.205-3.33,22.07-33.32-18.2-26.64-20.21-29.6a2.149,2.149,0,0,1,1.77-3.36h19a2.156,2.156,0,0,1,1.84,1.08q1.02,1.725,10.31,17.2,9.135-15.48,10.15-17.2a2.16,2.16,0,0,1,1.85-1.08h18.35a2.157,2.157,0,0,1,1.78,3.35q-1.98,2.955-19.84,29.61,20.49,29.985,22.78,33.32a2.152,2.152,0,0,1-.56,2.99,2.123,2.123,0,0,1-1.22.38H219.93A3.266,3.266,0,0,1,218.1,94.05Z" fill="rgba(0,0,0,0)" stroke="rgba(0,0,0,0)" stroke-width="1"/>
        </g>
      </g>
      <g id="Group_20" data-name="Group 20">
        <path id="Path_19" data-name="Path 19" d="M205.64,69.86,191.98,92.91H173.16l22.87-34.48-21.02-30.8h19l12.17,20.29,11.99-20.29h18.35l-20.65,30.8,23.65,34.48H219.93Z" fill="#fff"/>
        <g id="Group_19" data-name="Group 19">
          <path id="Path_20" data-name="Path 20" d="M205.64,69.86,191.98,92.91H173.16l22.87-34.48-21.02-30.8h19l12.17,20.29,11.99-20.29h18.35l-20.65,30.8,23.65,34.48H219.93Z" fill="rgba(0,0,0,0)" stroke="rgba(0,0,0,0)" stroke-width="1"/>
        </g>
      </g>
      <g id="Group_22" data-name="Group 22">
        <path id="Path_21" data-name="Path 21" d="M207.5,68.73a2.158,2.158,0,0,0-1.82-1.03h0a2.184,2.184,0,0,0-1.83,1.08q-1.32,2.205-13.12,22H177.14q18.585-28.065,20.65-31.18a2.143,2.143,0,0,0,0-2.4q-1.86-2.745-18.71-27.43h13.7q10.4,17.325,11.55,19.25a2.126,2.126,0,0,0,1.84,1.07h0a2.126,2.126,0,0,0,1.84-1.07q1.14-1.92,11.36-19.22h13.1L214.04,57.23a2.159,2.159,0,0,0,0,2.41q2.13,3.12,21.3,31.13H221.17Q208.87,70.925,207.5,68.73Z" fill="#231f20"/>
        <g id="Group_21" data-name="Group 21">
          <path id="Path_22" data-name="Path 22" d="M207.5,68.73a2.158,2.158,0,0,0-1.82-1.03h0a2.184,2.184,0,0,0-1.83,1.08q-1.32,2.205-13.12,22H177.14q18.585-28.065,20.65-31.18a2.143,2.143,0,0,0,0-2.4q-1.86-2.745-18.71-27.43h13.7q10.4,17.325,11.55,19.25a2.126,2.126,0,0,0,1.84,1.07h0a2.126,2.126,0,0,0,1.84-1.07q1.14-1.92,11.36-19.22h13.1L214.04,57.23a2.159,2.159,0,0,0,0,2.41q2.13,3.12,21.3,31.13H221.17Q208.87,70.925,207.5,68.73Z" fill="rgba(0,0,0,0)" stroke="rgba(0,0,0,0)" stroke-width="1"/>
        </g>
      </g>
      <g id="Group_24" data-name="Group 24">
        <path id="Path_23" data-name="Path 23" d="M170.59,131.78h3.51v15.96h-3.51Z" fill="#231f20"/>
        <g id="Group_23" data-name="Group 23">
          <path id="Path_24" data-name="Path 24" d="M170.59,131.78h3.51v15.96h-3.51Z" fill="rgba(0,0,0,0)" stroke="rgba(0,0,0,0)" stroke-width="1"/>
        </g>
      </g>
      <g id="Group_26" data-name="Group 26">
        <path id="Path_25" data-name="Path 25" d="M184.63,139.49v-7.71h3.51v15.96h-3.51v-3.23l-3.75-7.27v10.44h-3.5v-15.9h3.5Z" fill="#231f20"/>
        <g id="Group_25" data-name="Group 25">
          <path id="Path_26" data-name="Path 26" d="M184.63,139.49v-7.71h3.51v15.96h-3.51v-3.23l-3.75-7.27v10.44h-3.5v-15.9h3.5Z" fill="rgba(0,0,0,0)" stroke="rgba(0,0,0,0)" stroke-width="1"/>
        </g>
      </g>
      <g id="Group_28" data-name="Group 28">
        <path id="Path_27" data-name="Path 27" d="M196.99,147.69h-3.51V133.72h-3.35v-1.94h10.2v1.94h-3.35Z" fill="#231f20"/>
        <g id="Group_27" data-name="Group 27">
          <path id="Path_28" data-name="Path 28" d="M196.99,147.69h-3.51V133.72h-3.35v-1.94h10.2v1.94h-3.35Z" fill="rgba(0,0,0,0)" stroke="rgba(0,0,0,0)" stroke-width="1"/>
        </g>
      </g>
      <g id="Group_30" data-name="Group 30">
        <path id="Path_29" data-name="Path 29" d="M202.35,131.78h8.68v1.94h-5.18v4.84h4.59v1.93h-4.59v5.31h5.17v1.94h-8.68Z" fill="#231f20"/>
        <g id="Group_29" data-name="Group 29">
          <path id="Path_30" data-name="Path 30" d="M202.35,131.78h8.68v1.94h-5.18v4.84h4.59v1.93h-4.59v5.31h5.17v1.94h-8.68Z" fill="rgba(0,0,0,0)" stroke="rgba(0,0,0,0)" stroke-width="1"/>
        </g>
      </g>
      <g id="Group_32" data-name="Group 32">
        <path id="Path_31" data-name="Path 31" d="M218.93,139.95h5.3v7.78h-6.85q-4.035,0-4.04-2.69V134.51q0-2.73,4.04-2.73h2.41q4.455,0,4.45,2.78v1.73h-3.49v-1.42c0-.78-.5-1.16-1.5-1.15h-.87c-1.01,0-1.52.38-1.52,1.15v9.77c0,.77.51,1.16,1.52,1.16h2.38v-3.91h-1.83Z" fill="#231f20"/>
        <g id="Group_31" data-name="Group 31">
          <path id="Path_32" data-name="Path 32" d="M218.93,139.95h5.3v7.78h-6.85q-4.035,0-4.04-2.69V134.51q0-2.73,4.04-2.73h2.41q4.455,0,4.45,2.78v1.73h-3.49v-1.42c0-.78-.5-1.16-1.5-1.15h-.87c-1.01,0-1.52.38-1.52,1.15v9.77c0,.77.51,1.16,1.52,1.16h2.38v-3.91h-1.83Z" fill="rgba(0,0,0,0)" stroke="rgba(0,0,0,0)" stroke-width="1"/>
        </g>
      </g>
      <g id="Group_34" data-name="Group 34">
        <path id="Path_33" data-name="Path 33" d="M233.91,131.78q4,0,4.01,2.73v3.94a2.516,2.516,0,0,1-2.08,2.64c.17.45.98,2.66,2.44,6.65h-3.3l-2.3-6.45h-2.15v6.45h-3.49V131.78Zm-1.01,7.69c1.04,0,1.57-.38,1.57-1.15v-3.44c0-.78-.53-1.16-1.57-1.15h-2.3v5.75C231.98,139.47,232.74,139.47,232.9,139.47Z" fill="#231f20"/>
        <g id="Group_33" data-name="Group 33">
          <path id="Path_34" data-name="Path 34" d="M233.91,131.78q4,0,4.01,2.73v3.94a2.516,2.516,0,0,1-2.08,2.64c.17.45.98,2.66,2.44,6.65h-3.3l-2.3-6.45h-2.15v6.45h-3.49V131.78Zm-1.01,7.69c1.04,0,1.57-.38,1.57-1.15v-3.44c0-.78-.53-1.16-1.57-1.15h-2.3v5.75C231.98,139.47,232.74,139.47,232.9,139.47Z" fill="rgba(0,0,0,0)" stroke="rgba(0,0,0,0)" stroke-width="1"/>
        </g>
      </g>
      <g id="Group_36" data-name="Group 36">
        <path id="Path_35" data-name="Path 35" d="M240.89,131.78h3.5v15.96h-3.5Z" fill="#231f20"/>
        <g id="Group_35" data-name="Group 35">
          <path id="Path_36" data-name="Path 36" d="M240.89,131.78h3.5v15.96h-3.5Z" fill="rgba(0,0,0,0)" stroke="rgba(0,0,0,0)" stroke-width="1"/>
        </g>
      </g>
      <g id="Group_38" data-name="Group 38">
        <path id="Path_37" data-name="Path 37" d="M253.26,147.69h-3.5V133.72H246.4v-1.94h10.2v1.94h-3.34Z" fill="#231f20"/>
        <g id="Group_37" data-name="Group 37">
          <path id="Path_38" data-name="Path 38" d="M253.26,147.69h-3.5V133.72H246.4v-1.94h10.2v1.94h-3.34Z" fill="rgba(0,0,0,0)" stroke="rgba(0,0,0,0)" stroke-width="1"/>
        </g>
      </g>
      <g id="Group_40" data-name="Group 40">
        <path id="Path_39" data-name="Path 39" d="M261.58,147.74v-5.87l-4.3-10.09h3.51l2.62,6.94h.11l2.37-6.94h3.5l-4.3,10.09v5.87Z" fill="#231f20"/>
        <g id="Group_39" data-name="Group 39">
          <path id="Path_40" data-name="Path 40" d="M261.58,147.74v-5.87l-4.3-10.09h3.51l2.62,6.94h.11l2.37-6.94h3.5l-4.3,10.09v5.87Z" fill="rgba(0,0,0,0)" stroke="rgba(0,0,0,0)" stroke-width="1"/>
        </g>
      </g>
      <g id="Group_42" data-name="Group 42">
        <path id="Path_41" data-name="Path 41" d="M271.98,147.73h-3.67v-2.71h3.72Z" fill="#231f20"/>
        <g id="Group_41" data-name="Group 41">
          <path id="Path_42" data-name="Path 42" d="M271.98,147.73h-3.67v-2.71h3.72Z" fill="rgba(0,0,0,0)" stroke="rgba(0,0,0,0)" stroke-width="1"/>
        </g>
      </g>
      <g id="Group_44" data-name="Group 44">
        <path id="Path_43" data-name="Path 43" d="M280.35,147.74V134.51q0-2.73,4.2-2.73h2.62q4.185,0,4.19,2.73v13.22h-3.5v-5.85h-4.01v5.85Zm7.52-13.1q0-.93-1.53-.93h-.94c-1.08,0-1.53.31-1.53.93v5.31h4.01C287.87,136.77,287.87,135,287.87,134.64Z" fill="#231f20"/>
        <g id="Group_43" data-name="Group 43">
          <path id="Path_44" data-name="Path 44" d="M280.35,147.74V134.51q0-2.73,4.2-2.73h2.62q4.185,0,4.19,2.73v13.22h-3.5v-5.85h-4.01v5.85Zm7.52-13.1q0-.93-1.53-.93h-.94c-1.08,0-1.53.31-1.53.93v5.31h4.01C287.87,136.77,287.87,135,287.87,134.64Z" fill="rgba(0,0,0,0)" stroke="rgba(0,0,0,0)" stroke-width="1"/>
        </g>
      </g>
      <g id="Group_46" data-name="Group 46">
        <path id="Path_45" data-name="Path 45" d="M304.93,145.03c0,1.8-1.4,2.71-4.19,2.71h-2.26c-2.8,0-4.19-.91-4.19-2.71V134.5c0-1.8,1.39-2.71,4.19-2.71h2.26c2.79,0,4.19.91,4.19,2.71v1.8h-3.49v-1.66c0-.62-.53-.93-1.57-.93h-.69c-.93,0-1.39.31-1.39.93v10.23c0,.62.46.93,1.39.93h.87c.92,0,1.39-.31,1.39-.93v-.86h3.49Z" fill="#231f20"/>
        <g id="Group_45" data-name="Group 45">
          <path id="Path_46" data-name="Path 46" d="M304.93,145.03c0,1.8-1.4,2.71-4.19,2.71h-2.26c-2.8,0-4.19-.91-4.19-2.71V134.5c0-1.8,1.39-2.71,4.19-2.71h2.26c2.79,0,4.19.91,4.19,2.71v1.8h-3.49v-1.66c0-.62-.53-.93-1.57-.93h-.69c-.93,0-1.39.31-1.39.93v10.23c0,.62.46.93,1.39.93h.87c.92,0,1.39-.31,1.39-.93v-.86h3.49Z" fill="rgba(0,0,0,0)" stroke="rgba(0,0,0,0)" stroke-width="1"/>
        </g>
      </g>
      <g id="Group_48" data-name="Group 48">
        <path id="Path_47" data-name="Path 47" d="M318.13,145.03c0,1.8-1.39,2.71-4.19,2.71h-2.26c-2.79,0-4.19-.91-4.19-2.71V134.5c0-1.8,1.4-2.71,4.19-2.71h2.26c2.8,0,4.19.91,4.19,2.71v1.8h-3.49v-1.66c0-.62-.52-.93-1.57-.93h-.68q-1.38,0-1.38.93v10.23q0,.93,1.38.93h.87c.93,0,1.39-.31,1.39-.93v-.86h3.49C318.14,144.62,318.13,144.96,318.13,145.03Z" fill="#231f20"/>
        <g id="Group_47" data-name="Group 47">
          <path id="Path_48" data-name="Path 48" d="M318.13,145.03c0,1.8-1.39,2.71-4.19,2.71h-2.26c-2.79,0-4.19-.91-4.19-2.71V134.5c0-1.8,1.4-2.71,4.19-2.71h2.26c2.8,0,4.19.91,4.19,2.71v1.8h-3.49v-1.66c0-.62-.52-.93-1.57-.93h-.68q-1.38,0-1.38.93v10.23q0,.93,1.38.93h.87c.93,0,1.39-.31,1.39-.93v-.86h3.49C318.14,144.62,318.13,144.96,318.13,145.03Z" fill="rgba(0,0,0,0)" stroke="rgba(0,0,0,0)" stroke-width="1"/>
        </g>
      </g>
      <g id="Group_50" data-name="Group 50">
        <path id="Path_49" data-name="Path 49" d="M332.24,144.68c0,2.02-1.41,3.02-4.23,3.02h-2.95q-4.2,0-4.2-3.04v-12.9h3.51v12.98c0,.71.51,1.07,1.53,1.07h1.41c.95,0,1.42-.36,1.42-1.07V131.78h3.51Z" fill="#231f20"/>
        <g id="Group_49" data-name="Group 49">
          <path id="Path_50" data-name="Path 50" d="M332.24,144.68c0,2.02-1.41,3.02-4.23,3.02h-2.95q-4.2,0-4.2-3.04v-12.9h3.51v12.98c0,.71.51,1.07,1.53,1.07h1.41c.95,0,1.42-.36,1.42-1.07V131.78h3.51Z" fill="rgba(0,0,0,0)" stroke="rgba(0,0,0,0)" stroke-width="1"/>
        </g>
      </g>
      <g id="Group_52" data-name="Group 52">
        <path id="Path_51" data-name="Path 51" d="M342.37,131.78q4.005,0,4.01,2.73v3.94a2.516,2.516,0,0,1-2.08,2.64c.16.45.98,2.66,2.44,6.65h-3.32l-2.3-6.45h-2.15v6.45h-3.5V131.78Zm-1.06,7.69c1.05,0,1.57-.38,1.57-1.15v-3.44c0-.78-.52-1.16-1.57-1.15h-2.3v5.75C340.39,139.47,341.16,139.47,341.31,139.47Z" fill="#231f20"/>
        <g id="Group_51" data-name="Group 51">
          <path id="Path_52" data-name="Path 52" d="M342.37,131.78q4.005,0,4.01,2.73v3.94a2.516,2.516,0,0,1-2.08,2.64c.16.45.98,2.66,2.44,6.65h-3.32l-2.3-6.45h-2.15v6.45h-3.5V131.78Zm-1.06,7.69c1.05,0,1.57-.38,1.57-1.15v-3.44c0-.78-.52-1.16-1.57-1.15h-2.3v5.75C340.39,139.47,341.16,139.47,341.31,139.47Z" fill="rgba(0,0,0,0)" stroke="rgba(0,0,0,0)" stroke-width="1"/>
        </g>
      </g>
      <g id="Group_54" data-name="Group 54">
        <path id="Path_53" data-name="Path 53" d="M349.12,147.74V134.51q0-2.73,4.19-2.73h2.62q4.2,0,4.2,2.73v13.22h-3.51v-5.85h-4.01v5.85Zm7.51-13.1c0-.62-.5-.93-1.52-.93h-.95q-1.53,0-1.53.93v5.31h4.01C356.64,136.77,356.63,135,356.63,134.64Z" fill="#231f20"/>
        <g id="Group_53" data-name="Group 53">
          <path id="Path_54" data-name="Path 54" d="M349.12,147.74V134.51q0-2.73,4.19-2.73h2.62q4.2,0,4.2,2.73v13.22h-3.51v-5.85h-4.01v5.85Zm7.51-13.1c0-.62-.5-.93-1.52-.93h-.95q-1.53,0-1.53.93v5.31h4.01C356.64,136.77,356.63,135,356.63,134.64Z" fill="rgba(0,0,0,0)" stroke="rgba(0,0,0,0)" stroke-width="1"/>
        </g>
      </g>
      <g id="Group_56" data-name="Group 56">
        <path id="Path_55" data-name="Path 55" d="M373.67,145.03c0,1.8-1.39,2.71-4.19,2.71h-2.26c-2.79,0-4.19-.91-4.19-2.71V134.5c0-1.8,1.4-2.71,4.19-2.71h2.26c2.8,0,4.19.91,4.19,2.71v1.8h-3.5v-1.66c0-.62-.52-.93-1.57-.93h-.69c-.92,0-1.39.31-1.39.93v10.23c0,.62.47.93,1.39.93h.87c.93,0,1.39-.31,1.39-.93v-.86h3.5Z" fill="#231f20"/>
        <g id="Group_55" data-name="Group 55">
          <path id="Path_56" data-name="Path 56" d="M373.67,145.03c0,1.8-1.39,2.71-4.19,2.71h-2.26c-2.79,0-4.19-.91-4.19-2.71V134.5c0-1.8,1.4-2.71,4.19-2.71h2.26c2.8,0,4.19.91,4.19,2.71v1.8h-3.5v-1.66c0-.62-.52-.93-1.57-.93h-.69c-.92,0-1.39.31-1.39.93v10.23c0,.62.47.93,1.39.93h.87c.93,0,1.39-.31,1.39-.93v-.86h3.5Z" fill="rgba(0,0,0,0)" stroke="rgba(0,0,0,0)" stroke-width="1"/>
        </g>
      </g>
      <g id="Group_58" data-name="Group 58">
        <path id="Path_57" data-name="Path 57" d="M379.46,147.74v-5.87l-4.3-10.09h3.46l2.62,6.94h.11l2.37-6.94h3.46l-4.23,10.09v5.87Z" fill="#231f20"/>
        <g id="Group_57" data-name="Group 57">
          <path id="Path_58" data-name="Path 58" d="M379.46,147.74v-5.87l-4.3-10.09h3.46l2.62,6.94h.11l2.37-6.94h3.46l-4.23,10.09v5.87Z" fill="rgba(0,0,0,0)" stroke="rgba(0,0,0,0)" stroke-width="1"/>
        </g>
      </g>
      <g id="Group_60" data-name="Group 60">
        <path id="Path_59" data-name="Path 59" d="M389.8,147.73h-3.72v-2.71h3.72Z" fill="#231f20"/>
        <g id="Group_59" data-name="Group 59">
          <path id="Path_60" data-name="Path 60" d="M389.8,147.73h-3.72v-2.71h3.72Z" fill="rgba(0,0,0,0)" stroke="rgba(0,0,0,0)" stroke-width="1"/>
        </g>
      </g>
      <g id="Group_62" data-name="Group 62">
        <path id="Path_61" data-name="Path 61" d="M405.08,134.64c0-.64-.51-.95-1.54-.95h-.55c-.99,0-1.49.31-1.49.95v2.65a.61.61,0,0,0,.29.6c.31.15.62.28.94.4.34.1,2.99.96,3.33,1.07.73.25,1.24.45,1.55.59a1.978,1.978,0,0,1,.7.51,1.821,1.821,0,0,1,.26,1.14V145q0,2.685-4.22,2.68H402.2c-2.8,0-4.2-.97-4.2-2.93v-.8h3.51v.86c0,.63.53.94,1.57.94h.62c.93,0,1.39-.31,1.39-.94v-2.64a.619.619,0,0,0-.29-.6,7.944,7.944,0,0,0-.95-.4c-.33-.12-2.97-1.04-3.3-1.15a15.249,15.249,0,0,1-1.59-.6,1.63,1.63,0,0,1-.71-.64,1.958,1.958,0,0,1-.21-1.01v-3.22c0-1.83,1.39-2.74,4.19-2.74h2.15q4.185,0,4.19,2.74v1.55h-3.49Z" fill="#231f20"/>
        <g id="Group_61" data-name="Group 61">
          <path id="Path_62" data-name="Path 62" d="M405.08,134.64c0-.64-.51-.95-1.54-.95h-.55c-.99,0-1.49.31-1.49.95v2.65a.61.61,0,0,0,.29.6c.31.15.62.28.94.4.34.1,2.99.96,3.33,1.07.73.25,1.24.45,1.55.59a1.978,1.978,0,0,1,.7.51,1.821,1.821,0,0,1,.26,1.14V145q0,2.685-4.22,2.68H402.2c-2.8,0-4.2-.97-4.2-2.93v-.8h3.51v.86c0,.63.53.94,1.57.94h.62c.93,0,1.39-.31,1.39-.94v-2.64a.619.619,0,0,0-.29-.6,7.944,7.944,0,0,0-.95-.4c-.33-.12-2.97-1.04-3.3-1.15a15.249,15.249,0,0,1-1.59-.6,1.63,1.63,0,0,1-.71-.64,1.958,1.958,0,0,1-.21-1.01v-3.22c0-1.83,1.39-2.74,4.19-2.74h2.15q4.185,0,4.19,2.74v1.55h-3.49Z" fill="rgba(0,0,0,0)" stroke="rgba(0,0,0,0)" stroke-width="1"/>
        </g>
      </g>
      <g id="Group_64" data-name="Group 64">
        <path id="Path_63" data-name="Path 63" d="M411.5,131.78h8.67v1.94H415v4.84h4.59v1.93H415v5.31h5.17v1.94H411.5Z" fill="#231f20"/>
        <g id="Group_63" data-name="Group 63">
          <path id="Path_64" data-name="Path 64" d="M411.5,131.78h8.67v1.94H415v4.84h4.59v1.93H415v5.31h5.17v1.94H411.5Z" fill="rgba(0,0,0,0)" stroke="rgba(0,0,0,0)" stroke-width="1"/>
        </g>
      </g>
      <g id="Group_66" data-name="Group 66">
        <path id="Path_65" data-name="Path 65" d="M433.15,145.03c0,1.8-1.4,2.71-4.19,2.71H426.7c-2.8,0-4.19-.91-4.19-2.71V134.5c0-1.8,1.39-2.71,4.19-2.71h2.26c2.79,0,4.19.91,4.19,2.71v1.8h-3.5v-1.66c0-.62-.53-.93-1.57-.93h-.65c-.92,0-1.39.31-1.39.93v10.23c0,.62.47.93,1.39.93h.87c.93,0,1.39-.31,1.39-.93v-.86h3.5C433.16,144.62,433.15,144.96,433.15,145.03Z" fill="#231f20"/>
        <g id="Group_65" data-name="Group 65">
          <path id="Path_66" data-name="Path 66" d="M433.15,145.03c0,1.8-1.4,2.71-4.19,2.71H426.7c-2.8,0-4.19-.91-4.19-2.71V134.5c0-1.8,1.39-2.71,4.19-2.71h2.26c2.79,0,4.19.91,4.19,2.71v1.8h-3.5v-1.66c0-.62-.53-.93-1.57-.93h-.65c-.92,0-1.39.31-1.39.93v10.23c0,.62.47.93,1.39.93h.87c.93,0,1.39-.31,1.39-.93v-.86h3.5C433.16,144.62,433.15,144.96,433.15,145.03Z" fill="rgba(0,0,0,0)" stroke="rgba(0,0,0,0)" stroke-width="1"/>
        </g>
      </g>
      <g id="Group_68" data-name="Group 68">
        <path id="Path_67" data-name="Path 67" d="M447.26,144.68c0,2.02-1.41,3.02-4.23,3.02h-2.96q-4.185,0-4.19-3.04v-12.9h3.51v12.98c0,.7.5,1.07,1.52,1.07h1.42c.95,0,1.42-.36,1.42-1.07V131.78h3.51Z" fill="#231f20"/>
        <g id="Group_67" data-name="Group 67">
          <path id="Path_68" data-name="Path 68" d="M447.26,144.68c0,2.02-1.41,3.02-4.23,3.02h-2.96q-4.185,0-4.19-3.04v-12.9h3.51v12.98c0,.7.5,1.07,1.52,1.07h1.42c.95,0,1.42-.36,1.42-1.07V131.78h3.51Z" fill="rgba(0,0,0,0)" stroke="rgba(0,0,0,0)" stroke-width="1"/>
        </g>
      </g>
      <g id="Group_70" data-name="Group 70">
        <path id="Path_69" data-name="Path 69" d="M457.38,131.78c2.68,0,4.01.91,4.01,2.73v3.94a2.508,2.508,0,0,1-2.07,2.64c.16.45.97,2.66,2.44,6.65h-3.32l-2.3-6.45h-2.15v6.45h-3.51V131.78Zm-1.05,7.69c1.05,0,1.57-.38,1.57-1.15v-3.44c0-.78-.52-1.16-1.57-1.15h-2.29v5.75C455.41,139.47,456.18,139.47,456.33,139.47Z" fill="#231f20"/>
        <g id="Group_69" data-name="Group 69">
          <path id="Path_70" data-name="Path 70" d="M457.38,131.78c2.68,0,4.01.91,4.01,2.73v3.94a2.508,2.508,0,0,1-2.07,2.64c.16.45.97,2.66,2.44,6.65h-3.32l-2.3-6.45h-2.15v6.45h-3.51V131.78Zm-1.05,7.69c1.05,0,1.57-.38,1.57-1.15v-3.44c0-.78-.52-1.16-1.57-1.15h-2.29v5.75C455.41,139.47,456.18,139.47,456.33,139.47Z" fill="rgba(0,0,0,0)" stroke="rgba(0,0,0,0)" stroke-width="1"/>
        </g>
      </g>
      <g id="Group_72" data-name="Group 72">
        <path id="Path_71" data-name="Path 71" d="M464.32,131.78h3.5v15.96h-3.5Z" fill="#231f20"/>
        <g id="Group_71" data-name="Group 71">
          <path id="Path_72" data-name="Path 72" d="M464.32,131.78h3.5v15.96h-3.5Z" fill="rgba(0,0,0,0)" stroke="rgba(0,0,0,0)" stroke-width="1"/>
        </g>
      </g>
      <g id="Group_74" data-name="Group 74">
        <path id="Path_73" data-name="Path 73" d="M476.68,147.69h-3.5V133.72h-3.36v-1.94h10.21v1.94h-3.36Z" fill="#231f20"/>
        <g id="Group_73" data-name="Group 73">
          <path id="Path_74" data-name="Path 74" d="M476.68,147.69h-3.5V133.72h-3.36v-1.94h10.21v1.94h-3.36Z" fill="rgba(0,0,0,0)" stroke="rgba(0,0,0,0)" stroke-width="1"/>
        </g>
      </g>
      <g id="Group_76" data-name="Group 76">
        <path id="Path_75" data-name="Path 75" d="M485.07,147.74v-5.87l-4.3-10.09h3.46l2.62,6.94h.11l2.38-6.94h3.46l-4.23,10.09v5.87Z" fill="#231f20"/>
        <g id="Group_75" data-name="Group 75">
          <path id="Path_76" data-name="Path 76" d="M485.07,147.74v-5.87l-4.3-10.09h3.46l2.62,6.94h.11l2.38-6.94h3.46l-4.23,10.09v5.87Z" fill="rgba(0,0,0,0)" stroke="rgba(0,0,0,0)" stroke-width="1"/>
        </g>
      </g>
      <g id="Group_78" data-name="Group 78">
        <path id="Path_77" data-name="Path 77" d="M495.41,147.73h-3.72v-2.71h3.72Z" fill="#231f20"/>
        <g id="Group_77" data-name="Group 77">
          <path id="Path_78" data-name="Path 78" d="M495.41,147.73h-3.72v-2.71h3.72Z" fill="rgba(0,0,0,0)" stroke="rgba(0,0,0,0)" stroke-width="1"/>
        </g>
      </g>
      <g id="Group_80" data-name="Group 80">
        <path id="Path_79" data-name="Path 79" d="M498.03,63.25a31.987,31.987,0,1,0,36.16,27.18A31.981,31.981,0,0,0,498.03,63.25Z" fill="#fff"/>
        <g id="Group_79" data-name="Group 79">
          <path id="Path_80" data-name="Path 80" d="M498.03,63.25a31.987,31.987,0,1,0,36.16,27.18A31.981,31.981,0,0,0,498.03,63.25Z" fill="rgba(0,0,0,0)" stroke="rgba(0,0,0,0)" stroke-width="1"/>
        </g>
      </g>
      <g id="Group_82" data-name="Group 82">
        <path id="Path_81" data-name="Path 81" d="M498.34,65.37a29.835,29.835,0,1,0,33.72,25.35A29.837,29.837,0,0,0,498.34,65.37Z" fill="url(#linear-gradient)"/>
        <g id="Group_81" data-name="Group 81">
          <path id="Path_82" data-name="Path 82" d="M498.34,65.37a29.835,29.835,0,1,0,33.72,25.35A29.837,29.837,0,0,0,498.34,65.37Z" fill="rgba(0,0,0,0)" stroke="rgba(0,0,0,0)" stroke-width="1"/>
        </g>
      </g>
      <g id="Group_84" data-name="Group 84">
        <path id="Path_83" data-name="Path 83" d="M498.34,65.37a29.835,29.835,0,1,0,33.72,25.35A29.837,29.837,0,0,0,498.34,65.37Z" fill="#231f20"/>
        <g id="Group_83" data-name="Group 83">
          <path id="Path_84" data-name="Path 84" d="M498.34,65.37a29.835,29.835,0,1,0,33.72,25.35A29.837,29.837,0,0,0,498.34,65.37Z" fill="rgba(0,0,0,0)" stroke="rgba(0,0,0,0)" stroke-width="1"/>
        </g>
      </g>
      <g id="Group_86" data-name="Group 86">
        <path id="Path_85" data-name="Path 85" d="M494.44,111.84l-6.63,4.05Q477.685,99.8,476.56,98.01s29.35-7.97,49.46-16.25c-.1-.16.87,1.3.58,1.39-9.34,6.3-25.8,14.03-36.07,18.56Q491.31,103.735,494.44,111.84Z" fill="#fff"/>
        <g id="Group_85" data-name="Group 85">
          <path id="Path_86" data-name="Path 86" d="M494.44,111.84l-6.63,4.05Q477.685,99.8,476.56,98.01s29.35-7.97,49.46-16.25c-.1-.16.87,1.3.58,1.39-9.34,6.3-25.8,14.03-36.07,18.56Q491.31,103.735,494.44,111.84Z" fill="rgba(0,0,0,0)" stroke="rgba(0,0,0,0)" stroke-width="1"/>
        </g>
      </g>
    </g>
  </g>
</svg>
