<svg xmlns="http://www.w3.org/2000/svg" xmlns:xlink="http://www.w3.org/1999/xlink" preserveAspectRatio="xMidYMid meet" viewBox="0 0 640 640" width="640" height="640"><defs><path d="M497.24 290.36C548.51 290.36 574.15 313.44 574.15 359.58C574.15 414.96 574.15 445.73 574.15 451.88C574.15 498.03 548.51 521.1 497.24 521.1C262.23 521.1 131.67 521.1 105.56 521.1C54.29 521.1 28.65 498.03 28.65 451.88C28.65 396.5 28.65 365.74 28.65 359.58C28.65 313.44 54.29 290.36 105.56 290.36C340.57 290.36 471.13 290.36 497.24 290.36Z" id="cZsxKYHR4"></path><path d="M95.34 488.89C94.13 488.89 93.15 487.94 93.15 486.77C93.15 485.61 94.13 484.66 95.34 484.66C95.34 484.66 95.34 484.66 95.34 484.66C96.55 484.66 97.53 485.61 97.53 486.77C97.53 487.94 96.55 488.89 95.34 488.89Z" id="azcZYk70"></path><path d="M114.24 484.66C113.02 484.66 112.04 485.61 112.04 486.77C112.04 487.94 113.02 488.89 114.24 488.89C115.45 488.89 116.43 487.94 116.43 486.77C116.43 485.61 115.45 484.66 114.24 484.66Z" id="a2Nrh6XcP5"></path><path d="M133.13 484.66C131.92 484.66 130.94 485.61 130.94 486.77C130.94 487.94 131.92 488.89 133.13 488.89C134.34 488.89 135.32 487.94 135.32 486.77C135.32 485.61 134.34 484.66 133.13 484.66Z" id="nvbrA9RHo"></path><path d="M152.03 488.89C150.81 488.89 149.83 487.94 149.83 486.77C149.83 485.61 150.81 484.66 152.03 484.66C153.24 484.66 154.22 485.61 154.22 486.77C154.22 487.94 153.24 488.89 152.03 488.89Z" id="b1mUrz8CvC"></path><path d="M170.92 484.66C169.71 484.66 168.73 485.61 168.73 486.77C168.73 487.94 169.71 488.89 170.92 488.89C172.13 488.89 173.11 487.94 173.11 486.77C173.11 485.61 172.13 484.66 170.92 484.66Z" id="caJA7vOwjh"></path><path d="M189.82 484.66C188.6 484.66 187.62 485.61 187.62 486.77C187.62 487.94 188.6 488.89 189.82 488.89C191.03 488.89 192.01 487.94 192.01 486.77C192.01 485.61 191.03 484.66 189.82 484.66Z" id="bfGn8LNzo"></path><path d="M208.71 484.66C207.5 484.66 206.52 485.61 206.52 486.77C206.52 487.94 207.5 488.89 208.71 488.89C209.92 488.89 210.9 487.94 210.9 486.77C210.9 485.61 209.92 484.66 208.71 484.66Z" id="c12G5d7kGg"></path><path d="M227.61 484.66C226.39 484.66 225.41 485.61 225.41 486.77C225.41 487.94 226.39 488.89 227.61 488.89C228.82 488.89 229.8 487.94 229.8 486.77C229.8 485.61 228.82 484.66 227.61 484.66Z" id="bTY7RrLlh"></path><path d="M95.34 507.11C94.13 507.11 93.15 506.16 93.15 505C93.15 503.83 94.13 502.88 95.34 502.88C96.55 502.88 97.53 503.83 97.53 505C97.53 506.16 96.55 507.11 95.34 507.11Z" id="a1i37FcI7A"></path><path d="M114.24 502.88C113.02 502.88 112.04 503.83 112.04 505C112.04 506.16 113.02 507.11 114.24 507.11C115.45 507.11 116.43 506.16 116.43 505C116.43 503.83 115.45 502.88 114.24 502.88Z" id="e6P07w3A9v"></path><path d="M133.13 502.88C131.92 502.88 130.94 503.83 130.94 505C130.94 506.16 131.92 507.11 133.13 507.11C134.34 507.11 135.32 506.16 135.32 505C135.32 503.83 134.34 502.88 133.13 502.88Z" id="e2uqHnwnma"></path><path d="M152.03 507.11C150.81 507.11 149.83 506.16 149.83 505C149.83 503.83 150.81 502.88 152.03 502.88C153.24 502.88 154.22 503.83 154.22 505C154.22 506.16 153.24 507.11 152.03 507.11Z" id="abPtbN056"></path><path d="M170.92 502.88C169.71 502.88 168.73 503.83 168.73 505C168.73 506.16 169.71 507.11 170.92 507.11C172.13 507.11 173.11 506.16 173.11 505C173.11 503.83 172.13 502.88 170.92 502.88Z" id="f1ApCMGpXs"></path><path d="M189.82 502.88C188.6 502.88 187.62 503.83 187.62 505C187.62 506.16 188.6 507.11 189.82 507.11C191.03 507.11 192.01 506.16 192.01 505C192.01 503.83 191.03 502.88 189.82 502.88Z" id="df4wU5qcV"></path><path d="M208.71 502.88C207.5 502.88 206.52 503.83 206.52 505C206.52 506.16 207.5 507.11 208.71 507.11C209.92 507.11 210.9 506.16 210.9 505C210.9 503.83 209.92 502.88 208.71 502.88Z" id="a2dwYsdNTB"></path><path d="M227.61 502.88C226.39 502.88 225.41 503.83 225.41 505C225.41 506.16 226.39 507.11 227.61 507.11C228.82 507.11 229.8 506.16 229.8 505C229.8 503.83 228.82 502.88 227.61 502.88Z" id="a1A0nzdeLH"></path><path d="M95.34 525.33C94.13 525.33 93.15 524.38 93.15 523.22C93.15 522.05 94.13 521.1 95.34 521.1C96.55 521.1 97.53 522.05 97.53 523.22C97.53 523.22 97.53 523.22 97.53 523.22C97.53 524.39 96.55 525.33 95.34 525.33Z" id="b1UfNLRaaO"></path><path d="M114.24 521.1C113.02 521.1 112.04 522.05 112.04 523.22C112.04 524.39 113.02 525.33 114.24 525.33C115.45 525.33 116.43 524.39 116.43 523.22C116.43 522.05 115.45 521.1 114.24 521.1Z" id="l5TeA3ki"></path><path d="M133.13 521.1C131.92 521.1 130.94 522.05 130.94 523.22C130.94 524.39 131.92 525.33 133.13 525.33C134.34 525.33 135.32 524.39 135.32 523.22C135.32 522.05 134.34 521.1 133.13 521.1Z" id="a1IPQzBpq"></path><path d="M152.02 525.33C150.81 525.33 149.83 524.38 149.83 523.22C149.83 522.05 150.81 521.1 152.03 521.1C153.24 521.1 154.22 522.05 154.22 523.22C154.22 523.22 154.22 523.22 154.22 523.22C154.22 524.39 153.23 525.33 152.02 525.33Z" id="b9FMWWMND"></path><path d="M170.92 521.1C169.71 521.1 168.73 522.05 168.73 523.22C168.73 524.39 169.71 525.33 170.92 525.33C172.13 525.33 173.11 524.39 173.11 523.22C173.11 522.05 172.13 521.1 170.92 521.1Z" id="d3guZgTxQF"></path><path d="M189.82 521.1C188.6 521.1 187.62 522.05 187.62 523.22C187.62 524.39 188.6 525.33 189.82 525.33C191.03 525.33 192.01 524.39 192.01 523.22C192.01 522.05 191.03 521.1 189.82 521.1Z" id="bGvJMTQp4"></path><path d="M208.71 521.1C207.5 521.1 206.52 522.05 206.52 523.22C206.52 524.39 207.5 525.33 208.71 525.33C209.92 525.33 210.9 524.39 210.9 523.22C210.9 522.05 209.92 521.1 208.71 521.1Z" id="b1USzO1KCj"></path><path d="M227.61 521.1C226.39 521.1 225.41 522.05 225.41 523.22C225.41 524.39 226.39 525.33 227.61 525.33C228.82 525.33 229.8 524.39 229.8 523.22C229.8 522.05 228.82 521.1 227.61 521.1Z" id="d2qGBFqnHE"></path><path d="M95.34 543.56C94.13 543.56 93.15 542.61 93.15 541.44C93.15 540.28 94.13 539.33 95.34 539.33C96.55 539.33 97.53 540.28 97.53 541.44C97.53 542.61 96.55 543.56 95.34 543.56Z" id="b3da2YorN3"></path><path d="M114.24 539.33C113.02 539.33 112.04 540.27 112.04 541.44C112.04 542.61 113.02 543.56 114.24 543.56C115.45 543.56 116.43 542.61 116.43 541.44C116.43 540.27 115.45 539.33 114.24 539.33Z" id="bNNmZ3b8I"></path><path d="M133.13 539.33C131.92 539.33 130.94 540.27 130.94 541.44C130.94 542.61 131.92 543.56 133.13 543.56C134.34 543.56 135.32 542.61 135.32 541.44C135.32 540.27 134.34 539.33 133.13 539.33Z" id="a3LoRgWjJ"></path><path d="M152.03 543.56C150.81 543.56 149.83 542.61 149.83 541.44C149.83 540.28 150.81 539.33 152.03 539.33C153.24 539.33 154.22 540.28 154.22 541.44C154.22 541.44 154.22 541.44 154.22 541.44C154.22 542.61 153.24 543.56 152.03 543.56Z" id="ceUB1AEK"></path><path d="M170.92 539.33C169.71 539.33 168.73 540.27 168.73 541.44C168.73 542.61 169.71 543.56 170.92 543.56C172.13 543.56 173.11 542.61 173.11 541.44C173.11 540.27 172.13 539.33 170.92 539.33Z" id="k18d3X1l6o"></path><path d="M189.82 539.33C188.6 539.33 187.62 540.27 187.62 541.44C187.62 542.61 188.6 543.56 189.82 543.56C191.03 543.56 192.01 542.61 192.01 541.44C192.01 540.27 191.03 539.33 189.82 539.33Z" id="f1OOtUyovB"></path><path d="M208.71 539.33C207.5 539.33 206.52 540.27 206.52 541.44C206.52 542.61 207.5 543.56 208.71 543.56C209.92 543.56 210.9 542.61 210.9 541.44C210.9 540.27 209.92 539.33 208.71 539.33Z" id="a19mExseNM"></path><path d="M227.61 539.33C226.39 539.33 225.41 540.27 225.41 541.44C225.41 542.61 226.39 543.56 227.61 543.56C228.82 543.56 229.8 542.61 229.8 541.44C229.8 540.27 228.82 539.33 227.61 539.33Z" id="c5FlR3hAlT"></path><path d="M95.34 561.78C94.13 561.78 93.15 560.83 93.15 559.66C93.15 558.49 94.13 557.55 95.34 557.55C96.55 557.55 97.53 558.49 97.53 559.66C97.53 560.83 96.55 561.78 95.34 561.78Z" id="aXftvEj9I"></path><path d="M114.24 557.55C113.02 557.55 112.04 558.5 112.04 559.66C112.04 560.83 113.02 561.78 114.24 561.78C115.45 561.78 116.43 560.83 116.43 559.66C116.43 558.5 115.45 557.55 114.24 557.55Z" id="buWRZXDeP"></path><path d="M133.13 557.55C131.92 557.55 130.94 558.5 130.94 559.66C130.94 560.83 131.92 561.78 133.13 561.78C134.34 561.78 135.32 560.83 135.32 559.66C135.32 558.5 134.34 557.55 133.13 557.55Z" id="b4nJj9XLE5"></path><path d="M152.03 561.78C150.81 561.78 149.83 560.83 149.83 559.66C149.83 558.49 150.81 557.55 152.03 557.55C153.24 557.55 154.22 558.49 154.22 559.66C154.22 560.83 153.24 561.78 152.03 561.78Z" id="bgE5Drgjp"></path><path d="M170.92 557.55C169.71 557.55 168.73 558.5 168.73 559.66C168.73 560.83 169.71 561.78 170.92 561.78C172.13 561.78 173.11 560.83 173.11 559.66C173.11 558.5 172.13 557.55 170.92 557.55Z" id="c1a8RNBY1"></path><path d="M189.82 557.55C188.6 557.55 187.62 558.5 187.62 559.66C187.62 560.83 188.6 561.78 189.82 561.78C191.03 561.78 192.01 560.83 192.01 559.66C192.01 558.5 191.03 557.55 189.82 557.55Z" id="gvTnbYBUH"></path><path d="M208.71 557.55C207.5 557.55 206.52 558.5 206.52 559.66C206.52 560.83 207.5 561.78 208.71 561.78C209.92 561.78 210.9 560.83 210.9 559.66C210.9 558.5 209.92 557.55 208.71 557.55Z" id="eFnkFinrO"></path><path d="M227.61 557.55C226.39 557.55 225.41 558.5 225.41 559.66C225.41 560.83 226.39 561.78 227.61 561.78C228.82 561.78 229.8 560.83 229.8 559.66C229.8 558.5 228.82 557.55 227.61 557.55Z" id="b3yri6kkF"></path><path d="M95.34 580C94.13 580 93.15 579.05 93.15 577.88C93.15 576.72 94.13 575.77 95.34 575.77C96.55 575.77 97.53 576.72 97.53 577.88C97.53 577.89 97.53 577.89 97.53 577.89C97.53 579.05 96.55 580 95.34 580Z" id="a77lOznxp"></path><path d="M114.24 575.77C113.02 575.77 112.04 576.72 112.04 577.89C112.04 579.05 113.02 580 114.24 580C115.45 580 116.43 579.05 116.43 577.89C116.43 576.72 115.45 575.77 114.24 575.77Z" id="f7zQaKPd"></path><path d="M133.13 575.77C131.92 575.77 130.94 576.72 130.94 577.89C130.94 579.05 131.92 580 133.13 580C134.34 580 135.32 579.05 135.32 577.89C135.32 576.72 134.34 575.77 133.13 575.77Z" id="f1Kk90S17j"></path><path d="M152.02 580C150.81 580 149.83 579.05 149.83 577.88C149.83 576.72 150.81 575.77 152.03 575.77C153.24 575.77 154.22 576.72 154.22 577.88C154.22 577.89 154.22 577.89 154.22 577.89C154.22 579.05 153.23 580 152.02 580Z" id="bOErjk2id"></path><path d="M170.92 575.77C169.71 575.77 168.73 576.72 168.73 577.89C168.73 579.05 169.71 580 170.92 580C172.13 580 173.11 579.05 173.11 577.89C173.11 576.72 172.13 575.77 170.92 575.77Z" id="klSBttmb4"></path><path d="M189.82 575.77C188.6 575.77 187.62 576.72 187.62 577.89C187.62 579.05 188.6 580 189.82 580C191.03 580 192.01 579.05 192.01 577.89C192.01 576.72 191.03 575.77 189.82 575.77Z" id="cq5Xx8OnE"></path><path d="M208.71 575.77C207.5 575.77 206.52 576.72 206.52 577.89C206.52 579.05 207.5 580 208.71 580C209.92 580 210.9 579.05 210.9 577.89C210.9 576.72 209.92 575.77 208.71 575.77Z" id="cwu3JgeqB"></path><path d="M227.61 575.77C226.39 575.77 225.41 576.72 225.41 577.89C225.41 579.05 226.39 580 227.61 580C228.82 580 229.8 579.05 229.8 577.89C229.8 576.72 228.82 575.77 227.61 575.77Z" id="cJAu1dFS0"></path><path d="M546.13 297.86L538.92 302.04C456.92 256.39 411.37 231.02 402.25 225.95C398.88 224.07 392.98 224.3 389.09 226.47C370.19 236.99 275.73 289.59 105.7 384.26L97.95 380.92L97.95 385.58C98.37 385.9 98.61 386.08 98.65 386.12C98.72 387.26 101.44 388.88 102.89 389.69C116.61 397.28 226.35 458 240.07 465.59C243.97 468.81 250.83 469.38 253.1 468.12C262.37 462.86 308.74 436.56 392.21 389.22L518.98 319.22C530.94 312.4 537.59 308.61 538.92 307.85C541.11 306.63 546.07 303.94 546.01 302.47C546.01 302.47 546.01 302.47 546.01 302.47L546.13 297.86Z" id="b1d8XAfWB9"></path><path d="M105.7 384.26C101.05 382.26 98.46 381.14 97.95 380.92C99.43 382.37 112.85 392.28 112.82 385.75C112.47 385.75 110.73 385.75 107.6 385.75C114.16 382.09 117.81 380.06 118.54 379.65C118.04 379.08 117.53 378.52 117 377.98C115.49 378.82 111.73 380.91 105.7 384.26Z" id="d2DFZ0ItJP"></path><path d="M469.8 265.96C510.18 288.44 532.61 300.93 537.09 303.43C538.22 303.87 538.66 302.65 539.4 302.94C541.84 304.1 533.63 301.76 471.83 264.69C471.56 264.86 470.89 265.28 469.8 265.96Z" id="ll4VZdkYJ"></path><path d="M100.22 384.04C96.85 382.16 97.27 378.88 101.17 376.71C129.96 360.68 360.29 232.43 389.09 216.4C392.98 214.23 398.88 213.99 402.25 215.87C416.41 223.76 529.69 286.83 543.86 294.72C547.23 296.6 546.81 299.88 542.91 302.05C514.12 318.08 283.78 446.33 254.99 462.36C251.1 464.53 245.2 464.77 241.82 462.89C213.5 447.12 114.38 391.93 100.22 384.04Z" id="a46WJOteaT"></path><path d="M102.18 384.04C98.81 382.16 99.23 378.88 103.13 376.71C131.92 360.68 362.25 232.43 391.04 216.4C393.05 215.34 395.29 214.74 397.58 214.64C394.63 214.44 391.68 215.05 389.09 216.4C360.29 232.43 129.96 360.68 101.17 376.71C97.27 378.88 96.85 382.17 100.22 384.04C114.38 391.93 227.66 455 241.82 462.89C243.87 463.89 246.17 464.32 248.46 464.12C246.83 464.05 245.23 463.63 243.78 462.89C215.46 447.12 116.34 391.93 102.18 384.04Z" id="d4NFGDMeF6"></path><path d="M402.25 215.87C400.21 214.87 397.91 214.44 395.62 214.64C397.28 214.7 398.9 215.12 400.36 215.87C414.52 223.76 527.8 286.83 541.96 294.72C545.34 296.6 544.91 299.88 541.02 302.05C512.23 318.08 281.89 446.33 253.1 462.36C251.09 463.42 248.85 464.02 246.56 464.12C249.49 464.32 252.41 463.71 254.99 462.36C283.78 446.33 514.12 318.08 542.91 302.05C546.81 299.88 547.23 296.6 543.86 294.72C515.53 278.95 416.41 223.76 402.25 215.87Z" id="m1UL61f1D6"></path><path d="M258.61 457.42L109.57 374.43L385.01 221.07L534.05 304.06L258.61 457.42Z" id="c3kNB3jKKa"></path><path d="M273.2 429.57L160.06 366.58L369.14 250.16L482.28 313.15L273.2 429.57Z" id="a5obVkLG6Z"></path><path d="M456.67 255.47C456.06 255.13 456.14 254.54 456.84 254.15C456.84 254.15 456.84 254.15 456.84 254.15C457.57 253.76 458.45 253.73 459.21 254.06C460.81 254.95 473.67 262.11 475.27 263.01C475.88 263.34 475.8 263.93 475.1 264.32C475.1 264.32 475.1 264.32 475.1 264.32C474.37 264.72 473.5 264.75 472.74 264.42C469.52 262.63 458.27 256.37 456.67 255.47Z" id="b23w8ZMXP4"></path><radialGradient id="gradientc5gZlL1ghL" gradientUnits="userSpaceOnUse" cx="201.32" cy="500.7" dx="202.37" dy="506.51" r="5.9"><stop style="stop-color: #2c35a2;stop-opacity: 1" offset="1.0999999999999999%"></stop><stop style="stop-color: #242c88;stop-opacity: 1" offset="16.400000000000002%"></stop><stop style="stop-color: #1b2166;stop-opacity: 1" offset="39.800000000000004%"></stop><stop style="stop-color: #14194e;stop-opacity: 1" offset="62.1%"></stop><stop style="stop-color: #101440;stop-opacity: 1" offset="82.69999999999999%"></stop><stop style="stop-color: #0f133b;stop-opacity: 1" offset="100%"></stop></radialGradient><path d="M234.04 276.32C234.04 276.32 240.95 202.68 255.76 210.95C270.57 219.23 263.42 261.92 278.78 270.48C293.9 278.9 285.66 148.54 308.49 161.25C324.88 170.38 319.64 269.39 334.26 277.53C350.68 286.67 345.98 249.37 360.53 251.06C368.88 252.03 373.26 276.25 385.11 281.72C396.96 287.19 391.31 182.26 410.04 192.69C429 203.25 434.48 388.02 434.48 388.02C394.39 365.68 274.13 298.66 234.04 276.32Z" id="gDirvDfwj"></path><path d="M253.27 213.3C251.54 213.3 250.13 211.94 250.13 210.26C250.13 208.58 251.54 207.23 253.27 207.23C255.01 207.23 256.42 208.58 256.42 210.26C256.42 210.26 256.42 210.26 256.42 210.26C256.42 211.94 255.01 213.3 253.27 213.3Z" id="b1693LJJv3"></path><path d="M305.48 163.42C303.75 163.42 302.34 162.06 302.34 160.38C302.34 158.7 303.75 157.34 305.48 157.34C307.22 157.34 308.63 158.7 308.63 160.38C308.63 160.38 308.63 160.38 308.63 160.38C308.63 162.06 307.22 163.42 305.48 163.42Z" id="brpnrRFff"></path><path d="M360.11 253.86C358.37 253.86 356.96 252.51 356.96 250.83C356.96 249.15 358.37 247.79 360.11 247.79C360.11 247.79 360.11 247.79 360.11 247.79C361.85 247.79 363.26 249.15 363.26 250.83C363.26 252.5 361.85 253.86 360.11 253.86Z" id="i2Bf7ri3Of"></path><path d="M407.57 194.69C405.84 194.69 404.43 193.33 404.43 191.66C404.43 189.98 405.84 188.62 407.57 188.62C409.31 188.62 410.72 189.98 410.72 191.65C410.72 191.65 410.72 191.66 410.72 191.66C410.72 193.33 409.31 194.69 407.57 194.69Z" id="benrZ8r3k"></path><path d="M188.07 298.2C188.07 298.2 193.22 225.05 204.28 231.23C204.28 231.23 209.99 280.24 221.46 286.62C232.74 292.9 226.59 180.45 243.63 189.93C255.86 196.74 251.95 234.38 262.86 240.45C275.11 247.28 272.99 228.57 282.47 233.84C291.92 239.11 291.97 262.93 300.81 266.75C309.66 270.57 305.44 185.36 319.42 193.14C333.57 201.02 337.66 381.59 337.66 381.59C307.74 364.91 217.98 314.88 188.07 298.2Z" id="c1gPs4L3H0"></path><path d="M203.37 233.94C201.63 233.94 200.22 232.58 200.22 230.9C200.22 229.23 201.63 227.87 203.37 227.87C205.11 227.87 206.52 229.23 206.52 230.9C206.52 230.9 206.52 230.9 206.52 230.9C206.52 232.58 205.11 233.94 203.37 233.94Z" id="a3tvIUuJnm"></path><path d="M241.78 192.4C240.04 192.4 238.63 191.04 238.63 189.36C238.63 187.69 240.04 186.33 241.78 186.33C243.52 186.33 244.93 187.69 244.93 189.36C244.93 189.36 244.93 189.36 244.93 189.36C244.93 191.04 243.52 192.4 241.78 192.4Z" id="b83kJmfdOv"></path><path d="M279.46 236.11C277.72 236.11 276.31 234.75 276.31 233.08C276.31 231.4 277.72 230.04 279.46 230.04C281.2 230.04 282.61 231.4 282.61 233.07C282.61 233.07 282.61 233.08 282.61 233.08C282.61 234.75 281.2 236.11 279.46 236.11Z" id="a17pe6GFnQ"></path><path d="M317.54 195.91C315.8 195.91 314.39 194.55 314.39 192.87C314.4 191.2 315.8 189.84 317.54 189.84C319.28 189.84 320.69 191.2 320.69 192.87C320.69 192.88 320.69 192.88 320.69 192.88C320.69 194.55 319.28 195.91 317.54 195.91Z" id="c2v9eD276"></path><path d="M248.87 387.23L226.23 374.62L234.15 370.21L256.79 382.81L248.87 387.23Z" id="a1Tj6GMYY"></path><path d="M262.98 379.47L240.34 366.87L248.26 362.46L270.9 375.06L262.98 379.47Z" id="a8423IeT0z"></path><path d="M202.72 306.73C202.72 306.73 202.72 306.73 202.72 306.73C202.72 299.15 202.72 238.49 202.72 230.9C202.72 230.55 203.01 230.27 203.37 230.27C203.73 230.27 204.03 230.55 204.03 230.9C204.03 238.49 204.03 299.15 204.03 306.73C204.03 307.08 203.73 307.36 203.37 307.36C203.37 307.36 203.37 307.36 203.37 307.36C203.01 307.36 202.72 307.08 202.72 306.73Z" id="blDY4a2w"></path><path d="M241.13 328.14C241.13 328.14 241.13 328.14 241.13 328.14C241.13 314.26 241.13 203.24 241.13 189.36C241.13 189.02 241.42 188.73 241.78 188.73C242.14 188.73 242.43 189.02 242.43 189.36C242.43 203.24 242.43 314.26 242.43 328.14C242.44 328.49 242.14 328.77 241.78 328.77C241.78 328.77 241.78 328.77 241.78 328.77C241.42 328.77 241.13 328.49 241.13 328.14Z" id="aEJe4tS2y"></path><path d="M278.81 349.15C278.81 349.15 278.81 349.15 278.81 349.15C278.81 337.54 278.81 244.68 278.81 233.08C278.81 232.73 279.1 232.44 279.46 232.44C279.82 232.44 280.12 232.73 280.12 233.08C280.12 244.68 280.12 337.54 280.12 349.14C280.12 349.49 279.83 349.78 279.46 349.78C279.46 349.78 279.46 349.78 279.46 349.78C279.1 349.78 278.81 349.49 278.81 349.15Z" id="bPhP7xskX"></path><path d="M316.89 370.22C316.89 352.51 316.89 210.85 316.89 193.14C316.89 192.8 317.18 192.51 317.54 192.51C317.9 192.51 318.2 192.8 318.2 193.14C318.2 210.85 318.2 352.51 318.2 370.22C318.2 370.56 317.91 370.85 317.55 370.85C317.54 370.85 317.54 370.85 317.54 370.85C317.18 370.85 316.89 370.57 316.89 370.22Z" id="a2kvazEHM4"></path><path d="M156.33 262.59C156.32 262.39 156.43 262.2 156.6 262.08C159.69 259.97 175.13 249.42 202.93 230.43C225.95 205.54 238.73 191.71 241.29 188.94C241.42 188.81 241.6 188.73 241.79 188.73C241.98 188.74 242.16 188.82 242.28 188.96C244.76 191.84 257.16 206.22 279.48 232.12L317.06 192.45C343.82 162.23 358.69 145.43 361.67 142.07C361.9 141.81 362.31 141.78 362.59 142C362.86 142.23 362.9 142.63 362.66 142.89C359.69 146.25 344.81 163.05 318.04 193.29C295.18 217.42 282.48 230.82 279.94 233.5C279.82 233.64 279.63 233.71 279.44 233.71C279.25 233.7 279.08 233.62 278.95 233.48C276.47 230.6 264.08 216.22 241.76 190.33C219.02 214.93 206.39 228.59 203.86 231.32C203.83 231.36 203.79 231.39 203.75 231.42C199.11 234.59 162 259.94 157.36 263.11C157.25 263.18 157.12 263.22 156.98 263.22C156.62 263.22 156.33 262.94 156.33 262.59Z" id="e4yBcDsxY4"></path><path d="M75.77 -17.88C75.77 -12.47 71.22 -8.08 65.6 -8.08C59.99 -8.08 55.43 -12.47 55.43 -17.88C55.43 -23.3 59.99 -27.69 65.6 -27.69C71.22 -27.69 75.77 -23.3 75.77 -17.88Z" id="ajDbCt7R"></path><path d="M541.31 481.1L541.31 457.19" id="aKZFmftF"></path><path d="M528.92 469.14L553.71 469.14" id="aB3qWs5H1"></path><path d="M574.15 279.25C574.15 284.67 569.59 289.06 563.98 289.06C558.36 289.06 553.81 284.67 553.81 279.25C553.81 273.83 558.36 269.44 563.98 269.44C569.59 269.44 574.15 273.83 574.15 279.25Z" id="b1ipCst0X1"></path><path d="M80.1 563.89C74.63 562.64 71.25 557.36 72.55 552.08C73.85 546.81 79.33 543.56 84.79 544.81C90.26 546.06 93.64 551.35 92.34 556.62C91.04 561.89 85.56 565.14 80.1 563.89Z" id="c8FIvWqK5T"></path><path d="M67.62 249.91L67.62 226" id="dyvvdJnm7"></path><path d="M55.23 237.95L80.02 237.95" id="a2WqcEonrV"></path><path d="M191.79 580L191.79 556.09" id="b5Sp4DZYSL"></path><path d="M179.4 568.04L204.19 568.04" id="cGc49ATa7"></path><path d="M178.08 147.43L178.08 123.52" id="i1FaVpW0p6"></path><path d="M165.69 135.48L190.48 135.48" id="b2XmpA9Epe"></path></defs><g><g><g><use xlink:href="#cZsxKYHR4" opacity="1" fill="#ffffff" fill-opacity="1"></use><g><use xlink:href="#cZsxKYHR4" opacity="1" fill-opacity="0" stroke="#000000" stroke-width="1" stroke-opacity="0"></use></g></g><g><use xlink:href="#azcZYk70" opacity="1" fill="#0d0101" fill-opacity="1"></use><g><use xlink:href="#azcZYk70" opacity="1" fill-opacity="0" stroke="#000000" stroke-width="1" stroke-opacity="0"></use></g></g><g><use xlink:href="#a2Nrh6XcP5" opacity="1" fill="#0d0101" fill-opacity="1"></use><g><use xlink:href="#a2Nrh6XcP5" opacity="1" fill-opacity="0" stroke="#000000" stroke-width="1" stroke-opacity="0"></use></g></g><g><use xlink:href="#nvbrA9RHo" opacity="1" fill="#0d0101" fill-opacity="1"></use><g><use xlink:href="#nvbrA9RHo" opacity="1" fill-opacity="0" stroke="#000000" stroke-width="1" stroke-opacity="0"></use></g></g><g><use xlink:href="#b1mUrz8CvC" opacity="1" fill="#0d0101" fill-opacity="1"></use><g><use xlink:href="#b1mUrz8CvC" opacity="1" fill-opacity="0" stroke="#000000" stroke-width="1" stroke-opacity="0"></use></g></g><g><use xlink:href="#caJA7vOwjh" opacity="1" fill="#0d0101" fill-opacity="1"></use><g><use xlink:href="#caJA7vOwjh" opacity="1" fill-opacity="0" stroke="#000000" stroke-width="1" stroke-opacity="0"></use></g></g><g><use xlink:href="#bfGn8LNzo" opacity="1" fill="#0d0101" fill-opacity="1"></use><g><use xlink:href="#bfGn8LNzo" opacity="1" fill-opacity="0" stroke="#000000" stroke-width="1" stroke-opacity="0"></use></g></g><g><use xlink:href="#c12G5d7kGg" opacity="1" fill="#0d0101" fill-opacity="1"></use><g><use xlink:href="#c12G5d7kGg" opacity="1" fill-opacity="0" stroke="#000000" stroke-width="1" stroke-opacity="0"></use></g></g><g><use xlink:href="#bTY7RrLlh" opacity="1" fill="#0d0101" fill-opacity="1"></use><g><use xlink:href="#bTY7RrLlh" opacity="1" fill-opacity="0" stroke="#000000" stroke-width="1" stroke-opacity="0"></use></g></g><g><use xlink:href="#a1i37FcI7A" opacity="1" fill="#0d0101" fill-opacity="1"></use><g><use xlink:href="#a1i37FcI7A" opacity="1" fill-opacity="0" stroke="#000000" stroke-width="1" stroke-opacity="0"></use></g></g><g><use xlink:href="#e6P07w3A9v" opacity="1" fill="#0d0101" fill-opacity="1"></use><g><use xlink:href="#e6P07w3A9v" opacity="1" fill-opacity="0" stroke="#000000" stroke-width="1" stroke-opacity="0"></use></g></g><g><use xlink:href="#e2uqHnwnma" opacity="1" fill="#0d0101" fill-opacity="1"></use><g><use xlink:href="#e2uqHnwnma" opacity="1" fill-opacity="0" stroke="#000000" stroke-width="1" stroke-opacity="0"></use></g></g><g><use xlink:href="#abPtbN056" opacity="1" fill="#0d0101" fill-opacity="1"></use><g><use xlink:href="#abPtbN056" opacity="1" fill-opacity="0" stroke="#000000" stroke-width="1" stroke-opacity="0"></use></g></g><g><use xlink:href="#f1ApCMGpXs" opacity="1" fill="#0d0101" fill-opacity="1"></use><g><use xlink:href="#f1ApCMGpXs" opacity="1" fill-opacity="0" stroke="#000000" stroke-width="1" stroke-opacity="0"></use></g></g><g><use xlink:href="#df4wU5qcV" opacity="1" fill="#0d0101" fill-opacity="1"></use><g><use xlink:href="#df4wU5qcV" opacity="1" fill-opacity="0" stroke="#000000" stroke-width="1" stroke-opacity="0"></use></g></g><g><use xlink:href="#a2dwYsdNTB" opacity="1" fill="#0d0101" fill-opacity="1"></use><g><use xlink:href="#a2dwYsdNTB" opacity="1" fill-opacity="0" stroke="#000000" stroke-width="1" stroke-opacity="0"></use></g></g><g><use xlink:href="#a1A0nzdeLH" opacity="1" fill="#0d0101" fill-opacity="1"></use><g><use xlink:href="#a1A0nzdeLH" opacity="1" fill-opacity="0" stroke="#000000" stroke-width="1" stroke-opacity="0"></use></g></g><g><use xlink:href="#b1UfNLRaaO" opacity="1" fill="#0d0101" fill-opacity="1"></use><g><use xlink:href="#b1UfNLRaaO" opacity="1" fill-opacity="0" stroke="#000000" stroke-width="1" stroke-opacity="0"></use></g></g><g><use xlink:href="#l5TeA3ki" opacity="1" fill="#0d0101" fill-opacity="1"></use><g><use xlink:href="#l5TeA3ki" opacity="1" fill-opacity="0" stroke="#000000" stroke-width="1" stroke-opacity="0"></use></g></g><g><use xlink:href="#a1IPQzBpq" opacity="1" fill="#0d0101" fill-opacity="1"></use><g><use xlink:href="#a1IPQzBpq" opacity="1" fill-opacity="0" stroke="#000000" stroke-width="1" stroke-opacity="0"></use></g></g><g><use xlink:href="#b9FMWWMND" opacity="1" fill="#0d0101" fill-opacity="1"></use><g><use xlink:href="#b9FMWWMND" opacity="1" fill-opacity="0" stroke="#000000" stroke-width="1" stroke-opacity="0"></use></g></g><g><use xlink:href="#d3guZgTxQF" opacity="1" fill="#0d0101" fill-opacity="1"></use><g><use xlink:href="#d3guZgTxQF" opacity="1" fill-opacity="0" stroke="#000000" stroke-width="1" stroke-opacity="0"></use></g></g><g><use xlink:href="#bGvJMTQp4" opacity="1" fill="#0d0101" fill-opacity="1"></use><g><use xlink:href="#bGvJMTQp4" opacity="1" fill-opacity="0" stroke="#000000" stroke-width="1" stroke-opacity="0"></use></g></g><g><use xlink:href="#b1USzO1KCj" opacity="1" fill="#0d0101" fill-opacity="1"></use><g><use xlink:href="#b1USzO1KCj" opacity="1" fill-opacity="0" stroke="#000000" stroke-width="1" stroke-opacity="0"></use></g></g><g><use xlink:href="#d2qGBFqnHE" opacity="1" fill="#0d0101" fill-opacity="1"></use><g><use xlink:href="#d2qGBFqnHE" opacity="1" fill-opacity="0" stroke="#000000" stroke-width="1" stroke-opacity="0"></use></g></g><g><use xlink:href="#b3da2YorN3" opacity="1" fill="#0d0101" fill-opacity="1"></use><g><use xlink:href="#b3da2YorN3" opacity="1" fill-opacity="0" stroke="#000000" stroke-width="1" stroke-opacity="0"></use></g></g><g><use xlink:href="#bNNmZ3b8I" opacity="1" fill="#0d0101" fill-opacity="1"></use><g><use xlink:href="#bNNmZ3b8I" opacity="1" fill-opacity="0" stroke="#000000" stroke-width="1" stroke-opacity="0"></use></g></g><g><use xlink:href="#a3LoRgWjJ" opacity="1" fill="#0d0101" fill-opacity="1"></use><g><use xlink:href="#a3LoRgWjJ" opacity="1" fill-opacity="0" stroke="#000000" stroke-width="1" stroke-opacity="0"></use></g></g><g><use xlink:href="#ceUB1AEK" opacity="1" fill="#0d0101" fill-opacity="1"></use><g><use xlink:href="#ceUB1AEK" opacity="1" fill-opacity="0" stroke="#000000" stroke-width="1" stroke-opacity="0"></use></g></g><g><use xlink:href="#k18d3X1l6o" opacity="1" fill="#0d0101" fill-opacity="1"></use><g><use xlink:href="#k18d3X1l6o" opacity="1" fill-opacity="0" stroke="#000000" stroke-width="1" stroke-opacity="0"></use></g></g><g><use xlink:href="#f1OOtUyovB" opacity="1" fill="#0d0101" fill-opacity="1"></use><g><use xlink:href="#f1OOtUyovB" opacity="1" fill-opacity="0" stroke="#000000" stroke-width="1" stroke-opacity="0"></use></g></g><g><use xlink:href="#a19mExseNM" opacity="1" fill="#0d0101" fill-opacity="1"></use><g><use xlink:href="#a19mExseNM" opacity="1" fill-opacity="0" stroke="#000000" stroke-width="1" stroke-opacity="0"></use></g></g><g><use xlink:href="#c5FlR3hAlT" opacity="1" fill="#0d0101" fill-opacity="1"></use><g><use xlink:href="#c5FlR3hAlT" opacity="1" fill-opacity="0" stroke="#000000" stroke-width="1" stroke-opacity="0"></use></g></g><g><use xlink:href="#aXftvEj9I" opacity="1" fill="#0d0101" fill-opacity="1"></use><g><use xlink:href="#aXftvEj9I" opacity="1" fill-opacity="0" stroke="#000000" stroke-width="1" stroke-opacity="0"></use></g></g><g><use xlink:href="#buWRZXDeP" opacity="1" fill="#0d0101" fill-opacity="1"></use><g><use xlink:href="#buWRZXDeP" opacity="1" fill-opacity="0" stroke="#000000" stroke-width="1" stroke-opacity="0"></use></g></g><g><use xlink:href="#b4nJj9XLE5" opacity="1" fill="#0d0101" fill-opacity="1"></use><g><use xlink:href="#b4nJj9XLE5" opacity="1" fill-opacity="0" stroke="#000000" stroke-width="1" stroke-opacity="0"></use></g></g><g><use xlink:href="#bgE5Drgjp" opacity="1" fill="#0d0101" fill-opacity="1"></use><g><use xlink:href="#bgE5Drgjp" opacity="1" fill-opacity="0" stroke="#000000" stroke-width="1" stroke-opacity="0"></use></g></g><g><use xlink:href="#c1a8RNBY1" opacity="1" fill="#0d0101" fill-opacity="1"></use><g><use xlink:href="#c1a8RNBY1" opacity="1" fill-opacity="0" stroke="#000000" stroke-width="1" stroke-opacity="0"></use></g></g><g><use xlink:href="#gvTnbYBUH" opacity="1" fill="#0d0101" fill-opacity="1"></use><g><use xlink:href="#gvTnbYBUH" opacity="1" fill-opacity="0" stroke="#000000" stroke-width="1" stroke-opacity="0"></use></g></g><g><use xlink:href="#eFnkFinrO" opacity="1" fill="#0d0101" fill-opacity="1"></use><g><use xlink:href="#eFnkFinrO" opacity="1" fill-opacity="0" stroke="#000000" stroke-width="1" stroke-opacity="0"></use></g></g><g><use xlink:href="#b3yri6kkF" opacity="1" fill="#0d0101" fill-opacity="1"></use><g><use xlink:href="#b3yri6kkF" opacity="1" fill-opacity="0" stroke="#000000" stroke-width="1" stroke-opacity="0"></use></g></g><g><use xlink:href="#a77lOznxp" opacity="1" fill="#0d0101" fill-opacity="1"></use><g><use xlink:href="#a77lOznxp" opacity="1" fill-opacity="0" stroke="#000000" stroke-width="1" stroke-opacity="0"></use></g></g><g><use xlink:href="#f7zQaKPd" opacity="1" fill="#0d0101" fill-opacity="1"></use><g><use xlink:href="#f7zQaKPd" opacity="1" fill-opacity="0" stroke="#000000" stroke-width="1" stroke-opacity="0"></use></g></g><g><use xlink:href="#f1Kk90S17j" opacity="1" fill="#0d0101" fill-opacity="1"></use><g><use xlink:href="#f1Kk90S17j" opacity="1" fill-opacity="0" stroke="#000000" stroke-width="1" stroke-opacity="0"></use></g></g><g><use xlink:href="#bOErjk2id" opacity="1" fill="#0d0101" fill-opacity="1"></use><g><use xlink:href="#bOErjk2id" opacity="1" fill-opacity="0" stroke="#000000" stroke-width="1" stroke-opacity="0"></use></g></g><g><use xlink:href="#klSBttmb4" opacity="1" fill="#0d0101" fill-opacity="1"></use><g><use xlink:href="#klSBttmb4" opacity="1" fill-opacity="0" stroke="#000000" stroke-width="1" stroke-opacity="0"></use></g></g><g><use xlink:href="#cq5Xx8OnE" opacity="1" fill="#0d0101" fill-opacity="1"></use><g><use xlink:href="#cq5Xx8OnE" opacity="1" fill-opacity="0" stroke="#000000" stroke-width="1" stroke-opacity="0"></use></g></g><g><use xlink:href="#cwu3JgeqB" opacity="1" fill="#0d0101" fill-opacity="1"></use><g><use xlink:href="#cwu3JgeqB" opacity="1" fill-opacity="0" stroke="#000000" stroke-width="1" stroke-opacity="0"></use></g></g><g><use xlink:href="#cJAu1dFS0" opacity="1" fill="#0d0101" fill-opacity="1"></use><g><use xlink:href="#cJAu1dFS0" opacity="1" fill-opacity="0" stroke="#000000" stroke-width="1" stroke-opacity="0"></use></g></g><g><use xlink:href="#b1d8XAfWB9" opacity="1" fill="#5e5266" fill-opacity="0.42"></use><g><use xlink:href="#b1d8XAfWB9" opacity="1" fill-opacity="0" stroke="#000000" stroke-width="1" stroke-opacity="0"></use></g></g><g><use xlink:href="#d2DFZ0ItJP" opacity="1" fill="#5e5266" fill-opacity="1"></use><g><use xlink:href="#d2DFZ0ItJP" opacity="1" fill-opacity="0" stroke="#000000" stroke-width="1" stroke-opacity="0"></use></g></g><g><use xlink:href="#ll4VZdkYJ" opacity="1" fill="#6ee8fc" fill-opacity="1"></use><g><use xlink:href="#ll4VZdkYJ" opacity="1" fill-opacity="0" stroke="#000000" stroke-width="1" stroke-opacity="0"></use></g></g><g><use xlink:href="#a46WJOteaT" opacity="1" fill="#6c7cfb" fill-opacity="1"></use><g><use xlink:href="#a46WJOteaT" opacity="1" fill-opacity="0" stroke="#231f20" stroke-width="1" stroke-opacity="1"></use></g></g><g><use xlink:href="#d4NFGDMeF6" opacity="1" fill="#5e5266" fill-opacity="1"></use><g><use xlink:href="#d4NFGDMeF6" opacity="1" fill-opacity="0" stroke="#000000" stroke-width="1" stroke-opacity="0"></use></g></g><g><use xlink:href="#m1UL61f1D6" opacity="1" fill="#000000" fill-opacity="0"></use><g><use xlink:href="#m1UL61f1D6" opacity="1" fill-opacity="0" stroke="#222221" stroke-width="0.75" stroke-opacity="1"></use></g></g><g><use xlink:href="#c3kNB3jKKa" opacity="1" fill="#6c7cfb" fill-opacity="1"></use><g><use xlink:href="#c3kNB3jKKa" opacity="1" fill-opacity="0" stroke="#000000" stroke-width="1" stroke-opacity="0"></use></g></g><g><use xlink:href="#a5obVkLG6Z" opacity="1" fill="#5e5266" fill-opacity="1"></use><g><use xlink:href="#a5obVkLG6Z" opacity="1" fill-opacity="0" stroke="#000000" stroke-width="1" stroke-opacity="0"></use></g></g><g><use xlink:href="#b23w8ZMXP4" opacity="1" fill="url(#gradientc5gZlL1ghL)"></use><g><use xlink:href="#b23w8ZMXP4" opacity="1" fill-opacity="0" stroke="#000000" stroke-width="1" stroke-opacity="0"></use></g></g><g><use xlink:href="#gDirvDfwj" opacity="1" fill="#ffe164" fill-opacity="1"></use><g><use xlink:href="#gDirvDfwj" opacity="1" fill-opacity="0" stroke="#000000" stroke-width="1" stroke-opacity="0"></use></g></g><g><use xlink:href="#b1693LJJv3" opacity="1" fill="#ffffff" fill-opacity="1"></use><g><use xlink:href="#b1693LJJv3" opacity="1" fill-opacity="0" stroke="#000000" stroke-width="1" stroke-opacity="0"></use></g></g><g><use xlink:href="#brpnrRFff" opacity="1" fill="#ffffff" fill-opacity="1"></use><g><use xlink:href="#brpnrRFff" opacity="1" fill-opacity="0" stroke="#000000" stroke-width="1" stroke-opacity="0"></use></g></g><g><use xlink:href="#i2Bf7ri3Of" opacity="1" fill="#ffffff" fill-opacity="1"></use><g><use xlink:href="#i2Bf7ri3Of" opacity="1" fill-opacity="0" stroke="#000000" stroke-width="1" stroke-opacity="0"></use></g></g><g><use xlink:href="#benrZ8r3k" opacity="1" fill="#ffffff" fill-opacity="1"></use><g><use xlink:href="#benrZ8r3k" opacity="1" fill-opacity="0" stroke="#000000" stroke-width="1" stroke-opacity="0"></use></g></g><g><use xlink:href="#c1gPs4L3H0" opacity="1" fill="#97b6b9" fill-opacity="1"></use><g><use xlink:href="#c1gPs4L3H0" opacity="1" fill-opacity="0" stroke="#000000" stroke-width="1" stroke-opacity="0"></use></g></g><g><use xlink:href="#a3tvIUuJnm" opacity="1" fill="#ffffff" fill-opacity="1"></use><g><use xlink:href="#a3tvIUuJnm" opacity="1" fill-opacity="0" stroke="#000000" stroke-width="1" stroke-opacity="0"></use></g></g><g><use xlink:href="#b83kJmfdOv" opacity="1" fill="#ffffff" fill-opacity="1"></use><g><use xlink:href="#b83kJmfdOv" opacity="1" fill-opacity="0" stroke="#000000" stroke-width="1" stroke-opacity="0"></use></g></g><g><use xlink:href="#a17pe6GFnQ" opacity="1" fill="#ffffff" fill-opacity="1"></use><g><use xlink:href="#a17pe6GFnQ" opacity="1" fill-opacity="0" stroke="#000000" stroke-width="1" stroke-opacity="0"></use></g></g><g><use xlink:href="#c2v9eD276" opacity="1" fill="#ffffff" fill-opacity="1"></use><g><use xlink:href="#c2v9eD276" opacity="1" fill-opacity="0" stroke="#000000" stroke-width="1" stroke-opacity="0"></use></g></g><g><use xlink:href="#a1Tj6GMYY" opacity="1" fill="#6ee1f8" fill-opacity="1"></use><g><use xlink:href="#a1Tj6GMYY" opacity="1" fill-opacity="0" stroke="#000000" stroke-width="1" stroke-opacity="0"></use></g></g><g><use xlink:href="#a8423IeT0z" opacity="1" fill="#ffffff" fill-opacity="1"></use><g><use xlink:href="#a8423IeT0z" opacity="1" fill-opacity="0" stroke="#000000" stroke-width="1" stroke-opacity="0"></use></g></g><g><use xlink:href="#blDY4a2w" opacity="1" fill="#ffffff" fill-opacity="1"></use><g><use xlink:href="#blDY4a2w" opacity="1" fill-opacity="0" stroke="#000000" stroke-width="1" stroke-opacity="0"></use></g></g><g><use xlink:href="#aEJe4tS2y" opacity="1" fill="#ffffff" fill-opacity="1"></use><g><use xlink:href="#aEJe4tS2y" opacity="1" fill-opacity="0" stroke="#000000" stroke-width="1" stroke-opacity="0"></use></g></g><g><use xlink:href="#bPhP7xskX" opacity="1" fill="#ffffff" fill-opacity="1"></use><g><use xlink:href="#bPhP7xskX" opacity="1" fill-opacity="0" stroke="#000000" stroke-width="1" stroke-opacity="0"></use></g></g><g><use xlink:href="#a2kvazEHM4" opacity="1" fill="#ffffff" fill-opacity="1"></use><g><use xlink:href="#a2kvazEHM4" opacity="1" fill-opacity="0" stroke="#000000" stroke-width="1" stroke-opacity="0"></use></g></g><g><use xlink:href="#e4yBcDsxY4" opacity="1" fill="#000000" fill-opacity="0"></use><g><use xlink:href="#e4yBcDsxY4" opacity="1" fill-opacity="0" stroke="#222221" stroke-width="0.75" stroke-opacity="1"></use></g></g><g><use xlink:href="#ajDbCt7R" opacity="1" fill="#000000" fill-opacity="0"></use><g><use xlink:href="#ajDbCt7R" opacity="1" fill-opacity="0" stroke="#ffe164" stroke-width="3" stroke-opacity="1"></use></g></g><g><use xlink:href="#aKZFmftF" opacity="1" fill="#000000" fill-opacity="0"></use><g><use xlink:href="#aKZFmftF" opacity="1" fill-opacity="0" stroke="#ffe164" stroke-width="3" stroke-opacity="1"></use></g></g><g><use xlink:href="#aB3qWs5H1" opacity="1" fill="#000000" fill-opacity="0"></use><g><use xlink:href="#aB3qWs5H1" opacity="1" fill-opacity="0" stroke="#ffe164" stroke-width="3" stroke-opacity="1"></use></g></g><g><use xlink:href="#b1ipCst0X1" opacity="1" fill="#000000" fill-opacity="0"></use><g><use xlink:href="#b1ipCst0X1" opacity="1" fill-opacity="0" stroke="#97b6b9" stroke-width="3" stroke-opacity="1"></use></g></g><g><use xlink:href="#c8FIvWqK5T" opacity="1" fill="#000000" fill-opacity="0"></use><g><use xlink:href="#c8FIvWqK5T" opacity="1" fill-opacity="0" stroke="#ffe164" stroke-width="3" stroke-opacity="1"></use></g></g><g><use xlink:href="#dyvvdJnm7" opacity="1" fill="#000000" fill-opacity="0"></use><g><use xlink:href="#dyvvdJnm7" opacity="1" fill-opacity="0" stroke="#97b6b9" stroke-width="3" stroke-opacity="1"></use></g></g><g><use xlink:href="#a2WqcEonrV" opacity="1" fill="#000000" fill-opacity="0"></use><g><use xlink:href="#a2WqcEonrV" opacity="1" fill-opacity="0" stroke="#97b6b9" stroke-width="3" stroke-opacity="1"></use></g></g><g><use xlink:href="#b5Sp4DZYSL" opacity="1" fill="#000000" fill-opacity="0"></use><g><use xlink:href="#b5Sp4DZYSL" opacity="1" fill-opacity="0" stroke="#97b6b9" stroke-width="3" stroke-opacity="1"></use></g></g><g><use xlink:href="#cGc49ATa7" opacity="1" fill="#000000" fill-opacity="0"></use><g><use xlink:href="#cGc49ATa7" opacity="1" fill-opacity="0" stroke="#97b6b9" stroke-width="3" stroke-opacity="1"></use></g></g><g><use xlink:href="#i1FaVpW0p6" opacity="1" fill="#000000" fill-opacity="0"></use><g><use xlink:href="#i1FaVpW0p6" opacity="1" fill-opacity="0" stroke="#ffe164" stroke-width="3" stroke-opacity="1"></use></g></g><g><use xlink:href="#b2XmpA9Epe" opacity="1" fill="#000000" fill-opacity="0"></use><g><use xlink:href="#b2XmpA9Epe" opacity="1" fill-opacity="0" stroke="#ffe164" stroke-width="3" stroke-opacity="1"></use></g></g></g></g></svg>