<svg xmlns="http://www.w3.org/2000/svg" width="737.053" height="1005.922" viewBox="0 0 737.053 1005.922"><g id="Group_8532" data-name="Group 8532" transform="translate(-122.548 -4413.17)"><g id="Group_8526" data-name="Group 8526"><g id="Group_5528" data-name="Group 5528" transform="translate(397.554 4987.999)"><path id="Path_9831" data-name="Path 9831" d="M458.209,287.076l56.245-33.655a7.481,7.481,0,0,1,7.706-.009l133.443,79.4a3.553,3.553,0,0,1,.009,6.052l-55,32.9a8.9,8.9,0,0,1-9.161.012L458.215,292.5A3.185,3.185,0,0,1,458.209,287.076Z" transform="translate(-456.694 -252.347)" fill="#fff"></path><path id="Path_9832" data-name="Path 9832" d="M458.214,267.168l133.239,79.273a8.9,8.9,0,0,0,9.161-.012l55-32.9a3.49,3.49,0,0,0,1.685-3.014v7.122l-.006,0a3.478,3.478,0,0,1-1.679,2.952l-55,32.91a8.913,8.913,0,0,1-9.161.012L458.214,274.231A3.122,3.122,0,0,1,456.7,271.5l0,0v-7.032A3.127,3.127,0,0,0,458.214,267.168Z" transform="translate(-456.693 -227.011)" fill="#a7bcce"></path><path id="Path_9833" data-name="Path 9833" d="M458.214,267.168l133.239,79.273a8.942,8.942,0,0,0,4.186,1.24v7.063a8.935,8.935,0,0,1-4.186-1.233L458.214,274.231A3.122,3.122,0,0,1,456.7,271.5l0,0v-7.032A3.127,3.127,0,0,0,458.214,267.168Z" transform="translate(-456.693 -227.011)" fill="#bbcee1"></path></g><g id="Group_5530" data-name="Group 5530" transform="translate(334.038 4707.839)"><g id="Group_5529" data-name="Group 5529"><path id="Path_9834" data-name="Path 9834" d="M435.512,163.786,750.776,352.274l-.009,239.149L435.512,402.181Z" transform="translate(-435.512 -157.372)" fill="#5e5266"></path><path id="Path_9835" data-name="Path 9835" d="M540.649,229.2l2.837-6.564V461.789l-2.839,6.565Z" transform="translate(-225.39 -34.303)" fill="#a7bcce"></path><path id="Path_9836" data-name="Path 9836" d="M435.512,168.125l10.738-6.415L761.257,350.05l-10.48,6.564Z" transform="translate(-435.512 -161.711)" fill="#fff"></path></g><path id="Path_9837" data-name="Path 9837" d="M435.512,163.786V402.181L750.766,591.424l.009-239.149ZM743.3,578.037,442.979,397.76V177.146l300.33,179.563Z" transform="translate(-435.511 -157.372)" fill="#bbcee1"></path></g><g id="Group_5534" data-name="Group 5534" transform="translate(674.139 4610.074)"><g id="Group_5532" data-name="Group 5532"><g id="Group_5531" data-name="Group 5531"><path id="Path_9838" data-name="Path 9838" d="M554.6,183.919l118.752,70.353,0,146.3L554.6,329.762Z" transform="translate(-554.601 -178.508)" fill="#6c7cfb"></path><path id="Path_9839" data-name="Path 9839" d="M594.2,210.4l4.365-5.5V351.2l-4.367,5.5Z" transform="translate(-475.454 -134.638)" fill="#6c7cfb" opacity="0.761"></path><path id="Path_9840" data-name="Path 9840" d="M554.6,187.579l9.089-5.411,118.6,70.261-8.934,5.5Z" transform="translate(-554.601 -182.168)" fill="#fff"></path></g></g><path id="Path_9841" data-name="Path 9841" d="M557.948,189.842,656.632,248.3l-.006,121.579-98.678-58.846Z" transform="translate(-547.913 -166.123)" fill="#d8c3a6"></path><path id="Path_9842" data-name="Path 9842" d="M560.35,216.542v32.921l17.877,10.662V227.132Z" transform="translate(-543.114 -110.293)" fill="#ffe164"></path><g id="Group_5533" data-name="Group 5533" transform="translate(8.193 45.237)"><path id="Path_9843" data-name="Path 9843" d="M557.334,224.5v3.191l5.6,3.343v-3.213Z" transform="translate(-557.334 -138.886)" fill="#ffe164"></path><path id="Path_9844" data-name="Path 9844" d="M557.334,220.544v3.191l5.6,3.343v-3.212Z" transform="translate(-557.334 -147.16)" fill="#ffe164"></path><path id="Path_9845" data-name="Path 9845" d="M557.334,216.587v3.191l5.6,3.342v-3.212Z" transform="translate(-557.334 -155.433)" fill="#ffe164"></path><path id="Path_9846" data-name="Path 9846" d="M557.334,212.63v3.191l5.6,3.343v-3.213Z" transform="translate(-557.334 -163.708)" fill="#ffe164"></path><path id="Path_9847" data-name="Path 9847" d="M557.334,208.674v3.189l5.6,3.343v-3.212Z" transform="translate(-557.334 -171.981)" fill="#ffe164"></path><path id="Path_9848" data-name="Path 9848" d="M557.334,204.717v3.191l5.6,3.342v-3.212Z" transform="translate(-557.334 -180.255)" fill="#ffe164"></path><path id="Path_9849" data-name="Path 9849" d="M557.334,200.76v3.191l5.6,3.343v-3.212Z" transform="translate(-557.334 -188.53)" fill="#ffe164"></path><path id="Path_9850" data-name="Path 9850" d="M557.334,196.8v3.189l5.6,3.343v-3.212Z" transform="translate(-557.334 -196.803)" fill="#ffe164"></path></g><path id="Path_9851" data-name="Path 9851" d="M567.731,211.91v60.469l17.878,10.662V222.5Z" transform="translate(-528.36 -119.977)" fill="#ffe164"></path><path id="Path_9852" data-name="Path 9852" d="M575.112,218.849V271.1l17.88,10.662V229.441Z" transform="translate(-513.609 -105.468)" fill="#ffe164"></path><path id="Path_9853" data-name="Path 9853" d="M582.494,212.874v83.954l17.878,10.66V223.465Z" transform="translate(-498.856 -117.961)" fill="#ffe164"></path></g><g id="Group_5538" data-name="Group 5538" transform="translate(505.962 4476.032)"><g id="Group_5536" data-name="Group 5536"><g id="Group_5535" data-name="Group 5535"><path id="Path_9854" data-name="Path 9854" d="M506.186,141.525l118.752,70.353,0,146.3L506.186,287.367Z" transform="translate(-506.186 -136.114)" fill="#bbcee1"></path><path id="Path_9855" data-name="Path 9855" d="M545.789,168.009l3.33-5.5v146.3l-3.331,5.5Z" transform="translate(-427.039 -92.245)" fill="#a7bcce"></path><path id="Path_9856" data-name="Path 9856" d="M506.186,145.185l9.09-5.411,118.6,70.26-8.937,5.5Z" transform="translate(-506.186 -139.774)" fill="#fff"></path></g></g><path id="Path_9857" data-name="Path 9857" d="M509.532,147.447l98.687,58.464-.006,121.578-98.681-58.845Z" transform="translate(-499.5 -123.73)" fill="#fff"></path><g id="Group_5537" data-name="Group 5537" transform="translate(8.193 45.235)"><path id="Path_9858" data-name="Path 9858" d="M508.919,182.107V185.3l5.6,3.345v-3.213Z" transform="translate(-508.919 -96.49)" fill="#6c7cfb"></path><path id="Path_9859" data-name="Path 9859" d="M508.919,178.15v3.191l5.6,3.343v-3.212Z" transform="translate(-508.919 -104.765)" fill="#6c7cfb"></path><path id="Path_9860" data-name="Path 9860" d="M508.919,174.193v3.191l5.6,3.343v-3.212Z" transform="translate(-508.919 -113.039)" fill="#6c7cfb"></path><path id="Path_9861" data-name="Path 9861" d="M508.919,170.236v3.191l5.6,3.343v-3.213Z" transform="translate(-508.919 -121.312)" fill="#6c7cfb"></path><path id="Path_9862" data-name="Path 9862" d="M508.919,166.279v3.191l5.6,3.343V169.6Z" transform="translate(-508.919 -129.587)" fill="#6c7cfb"></path><path id="Path_9863" data-name="Path 9863" d="M508.919,162.322v3.191l5.6,3.343v-3.212Z" transform="translate(-508.919 -137.861)" fill="#6c7cfb"></path><path id="Path_9864" data-name="Path 9864" d="M508.919,158.366v3.191l5.6,3.343v-3.214Z" transform="translate(-508.919 -146.134)" fill="#6c7cfb"></path><path id="Path_9865" data-name="Path 9865" d="M508.919,154.409V157.6l5.6,3.343v-3.212Z" transform="translate(-508.919 -154.409)" fill="#6c7cfb"></path></g></g><path id="Path_9869" data-name="Path 9869" d="M582.868,173.4c-3.757-2.235-6.813-.439-6.825,4.012a14.29,14.29,0,0,0,1.8,6.522l-27.476,26.911a12.777,12.777,0,0,0-3.529-3.307c-1.964-1.168-3.721-1.215-4.969-.38l-14.927-20.209a7.362,7.362,0,0,0,.255-1.9,15.5,15.5,0,0,0-6.783-12.111c-3.757-2.238-6.813-.439-6.825,4.012a15.516,15.516,0,0,0,6.783,12.111,4.944,4.944,0,0,0,4.336.686L540.1,210.582a7.564,7.564,0,0,0-.09.967,15.49,15.49,0,0,0,6.783,12.111c3.757,2.238,6.816.442,6.825-4.009a13.816,13.816,0,0,0-1.409-5.734l27.611-27.05a12.184,12.184,0,0,0,3.008,2.658c3.757,2.238,6.813.439,6.825-4.009A15.5,15.5,0,0,0,582.868,173.4Z" transform="translate(14.57 4403.588)" fill="#e68176"></path><g id="Group_5544" data-name="Group 5544" transform="translate(210 4972.395)"><g id="Group_5543" data-name="Group 5543"><g id="Group_5541" data-name="Group 5541"><g id="Group_5540" data-name="Group 5540"><path id="Path_9870" data-name="Path 9870" d="M478.285,191.038,388.4,244.289l0,110.738,89.885-53.6Z" transform="translate(-381.636 -186.942)" fill="#dcbf7b"></path><path id="Path_9871" data-name="Path 9871" d="M390.109,211.083l-3.967-4.166V317.656l3.968,4.166Z" transform="translate(-383.347 -153.736)" fill="#dcbf7b" opacity="0.563"></path><path id="Path_9872" data-name="Path 9872" d="M482.791,193.809l-6.881-4.1-89.767,53.182,6.762,4.166Z" transform="translate(-386.143 -189.713)" fill="#fff"></path></g></g><path id="Path_9873" data-name="Path 9873" d="M465.626,195.521l-74.7,44.251,0,92.024,74.693-44.541Z" transform="translate(-376.573 -177.568)" fill="#ffe164"></path><g id="Group_5542" data-name="Group 5542" transform="translate(13.048 77.091)"><path id="Path_9874" data-name="Path 9874" d="M394.737,235.618v2.416l-4.243,2.53v-2.431Z" transform="translate(-390.494 -170.814)" fill="#bbcee1"></path><path id="Path_9875" data-name="Path 9875" d="M394.737,232.623v2.415l-4.243,2.53v-2.43Z" transform="translate(-390.494 -177.076)" fill="#bbcee1"></path><path id="Path_9876" data-name="Path 9876" d="M394.737,229.628v2.415l-4.243,2.531v-2.431Z" transform="translate(-390.494 -183.339)" fill="#bbcee1"></path><path id="Path_9877" data-name="Path 9877" d="M394.737,226.633v2.413l-4.243,2.531v-2.431Z" transform="translate(-390.494 -189.601)" fill="#bbcee1"></path><path id="Path_9878" data-name="Path 9878" d="M394.737,223.638v2.415l-4.243,2.53v-2.431Z" transform="translate(-390.494 -195.864)" fill="#bbcee1"></path><path id="Path_9879" data-name="Path 9879" d="M394.737,220.643v2.415l-4.243,2.53v-2.431Z" transform="translate(-390.494 -202.127)" fill="#bbcee1"></path><path id="Path_9880" data-name="Path 9880" d="M394.737,217.648v2.415l-4.243,2.531v-2.431Z" transform="translate(-390.494 -208.39)" fill="#bbcee1"></path><path id="Path_9881" data-name="Path 9881" d="M394.737,214.653v2.417l-4.243,2.529v-2.431Z" transform="translate(-390.494 -214.653)" fill="#bbcee1"></path></g></g><path id="Path_9882" data-name="Path 9882" d="M393.273,297.281l62.3-37.153v-53.9Z" transform="translate(-371.891 -155.171)" fill="#e68176"></path><path id="Path_9883" data-name="Path 9883" d="M403.18,209.093v18.243l-9.906,5.908V214.961Z" transform="translate(-371.891 -149.188)" fill="#97b6b9"></path><path id="Path_9884" data-name="Path 9884" d="M393.273,312.425l62.3-91.049V198.989Z" transform="translate(-371.891 -170.315)" fill="#97b6b9"></path></g><path id="Path_9885" data-name="Path 9885" d="M488.656,201.689l-48.083-28.7v4.821l48.083,28.7Z" transform="translate(-91.358 4569.704)" fill="#dcbf7b" stroke="#fff" stroke-width="1"></path><path id="Path_9886" data-name="Path 9886" d="M488.656,204.315l-48.083-28.7v4.819l48.083,28.7Z" transform="translate(-91.358 4575.196)" fill="#dcbf7b" stroke="#fff" stroke-width="1"></path><g id="Group_5545" data-name="Group 5545" transform="translate(530.46 5036.08)" style="isolation: isolate"><path id="Path_9887" data-name="Path 9887" d="M549.1,296.605l-48.083-28.7v4.818l48.083,28.7Z" transform="translate(-501.017 -267.901)" fill="#e68176" style="mix-blend-mode: overlay;isolation: isolate"></path><path id="Path_9888" data-name="Path 9888" d="M549.1,299.231l-48.083-28.7v4.821l48.083,28.7Z" transform="translate(-501.017 -262.41)" fill="#e68176" style="mix-blend-mode: overlay;isolation: isolate"></path></g><g id="Group_5546" data-name="Group 5546" transform="translate(475.124 5003.077)" style="isolation: isolate"><path id="Path_9889" data-name="Path 9889" d="M530.645,285.928l-48.083-28.7v4.818l48.083,28.7Z" transform="translate(-482.562 -257.225)" fill="#e68176" style="mix-blend-mode: overlay;isolation: isolate"></path><path id="Path_9890" data-name="Path 9890" d="M530.645,288.554l-48.083-28.7v4.821l48.083,28.7Z" transform="translate(-482.562 -251.734)" fill="#e68176" style="mix-blend-mode: overlay;isolation: isolate"></path></g><g id="Group_5547" data-name="Group 5547" transform="translate(419.79 4970.075)" style="isolation: isolate"><path id="Path_9891" data-name="Path 9891" d="M512.189,275.252l-48.08-28.7v4.819l48.08,28.7Z" transform="translate(-464.109 -246.548)" fill="#e68176" style="mix-blend-mode: overlay;isolation: isolate"></path><path id="Path_9892" data-name="Path 9892" d="M512.189,277.877l-48.08-28.7v4.819l48.08,28.7Z" transform="translate(-464.109 -241.056)" fill="#e68176" style="mix-blend-mode: overlay;isolation: isolate"></path></g><path id="Path_9893" data-name="Path 9893" d="M488.656,206.941l-48.083-28.7v4.819l48.083,28.7Z" transform="translate(-91.358 4580.688)" fill="#dcbf7b" stroke="#fff" stroke-width="1"></path><path id="Path_9894" data-name="Path 9894" d="M488.656,209.568l-48.083-28.7v4.819l48.083,28.7Z" transform="translate(-91.358 4586.181)" fill="#dcbf7b" stroke="#fff" stroke-width="1"></path><path id="Path_9895" data-name="Path 9895" d="M488.656,212.194l-48.083-28.7v4.819l48.083,28.7Z" transform="translate(-91.358 4591.673)" fill="#dcbf7b" stroke="#fff" stroke-width="1"></path><path id="Path_9896" data-name="Path 9896" d="M488.656,214.822l-48.083-28.7v4.821l48.083,28.7Z" transform="translate(-91.358 4597.165)" fill="#dcbf7b" stroke="#fff" stroke-width="1"></path><path id="Path_9897" data-name="Path 9897" d="M488.656,217.449l-48.083-28.7v4.821l48.083,28.7Z" transform="translate(-91.358 4602.657)" fill="#dcbf7b" stroke="#fff" stroke-width="1"></path><path id="Path_9898" data-name="Path 9898" d="M488.656,220.074l-48.083-28.7v4.819l48.083,28.7Z" transform="translate(-91.358 4608.15)" fill="#dcbf7b" stroke="#fff" stroke-width="1"></path><path id="Path_9899" data-name="Path 9899" d="M488.656,222.7,440.573,194v4.819l48.083,28.7Z" transform="translate(-91.358 4613.642)" fill="#dcbf7b" stroke="#fff" stroke-width="1"></path><path id="Path_9900" data-name="Path 9900" d="M488.656,225.327l-48.083-28.7v4.819l48.083,28.7Z" transform="translate(-91.358 4619.134)" fill="#dcbf7b" stroke="#fff" stroke-width="1"></path><path id="Path_9901" data-name="Path 9901" d="M488.656,227.953l-48.083-28.7v4.819l48.083,28.7Z" transform="translate(-91.358 4624.626)" fill="#dcbf7b" stroke="#fff" stroke-width="1"></path><path id="Path_9902" data-name="Path 9902" d="M488.656,230.582l-48.083-28.7V206.7l48.083,28.7Z" transform="translate(-91.358 4630.118)" fill="#dcbf7b" stroke="#fff" stroke-width="1"></path><path id="Path_9903" data-name="Path 9903" d="M488.656,233.208l-48.083-28.7v4.821l48.083,28.7Z" transform="translate(-91.358 4635.61)" fill="#dcbf7b" stroke="#fff" stroke-width="1"></path><path id="Path_9904" data-name="Path 9904" d="M488.656,235.833l-48.083-28.7v4.819l48.083,28.7Z" transform="translate(-91.358 4641.104)" fill="#dcbf7b" stroke="#fff" stroke-width="1"></path><path id="Path_9905" data-name="Path 9905" d="M488.656,238.46l-48.083-28.7v4.819l48.083,28.7Z" transform="translate(-91.358 4646.596)" fill="#dcbf7b" stroke="#fff" stroke-width="1"></path><path id="Path_9906" data-name="Path 9906" d="M488.656,241.086l-48.083-28.7V217.2l48.083,28.7Z" transform="translate(-91.358 4652.087)" fill="#dcbf7b" stroke="#fff" stroke-width="1"></path><path id="Path_9907" data-name="Path 9907" d="M488.656,243.713l-48.083-28.7v4.819l48.083,28.7Z" transform="translate(-91.358 4657.58)" fill="#dcbf7b" stroke="#fff" stroke-width="1"></path><path id="Path_4038" data-name="Path 4038" stroke="#222221" d="M245.446,282.044s274.232-42.168,198.067-153.161" fill="none" transform="translate(363.759 4606.704)" stroke-linecap="round" stroke-linejoin="round" stroke-width="2" stroke-dasharray="5 6"></path><path id="Path_9908" data-name="Path 9908" stroke="#222221" d="M245.446,128.883s274.23,42.168,198.065,153.161" fill="none" transform="translate(410.965 5076.726) rotate(-112)" stroke-linecap="round" stroke-linejoin="round" stroke-width="2" stroke-dasharray="5 6"></path><path id="Path_9909" data-name="Path 9909" stroke="#222221" d="M245.446,128.883s274.23,42.168,198.065,153.161" fill="none" transform="matrix(-0.545, 0.839, -0.839, -0.545, 689.493, 4920.563)" stroke-linecap="round" stroke-linejoin="round" stroke-width="2" stroke-dasharray="5 6"></path></g><g id="Group_3608" data-name="Group 3608" transform="translate(123.729 4402.82)" opacity="0.798"><ellipse id="Ellipse_118" data-name="Ellipse 118" cx="15.85" cy="15.85" rx="15.85" ry="15.85" transform="translate(0.32 11.85)" fill="none" stroke="#ffe164" stroke-miterlimit="10" stroke-width="3"></ellipse><g id="Group_2105" data-name="Group 2105" transform="translate(663.883 814.012)"><line id="Line_5" data-name="Line 5" y1="38.639" transform="translate(19.32)" fill="none" stroke="#ffe164" stroke-linecap="round" stroke-miterlimit="10" stroke-width="3"></line><line id="Line_6" data-name="Line 6" x2="38.639" transform="translate(0 19.319)" fill="none" stroke="#ffe164" stroke-linecap="round" stroke-miterlimit="10" stroke-width="3"></line></g><ellipse id="Ellipse_119" data-name="Ellipse 119" cx="15.85" cy="15.85" rx="15.85" ry="15.85" transform="translate(702.672 503.33)" fill="none" stroke="#97b6b9" stroke-miterlimit="10" stroke-width="3"></ellipse><ellipse id="Ellipse_120" data-name="Ellipse 120" cx="15.85" cy="15.85" rx="15.85" ry="15.85" transform="matrix(-0.231, 0.973, -0.973, -0.231, 61.503, 963.06)" fill="none" stroke="#ffe164" stroke-miterlimit="10" stroke-width="3"></ellipse><g id="Group_2107" data-name="Group 2107" transform="translate(0 431.545)"><g id="Group_2106" data-name="Group 2106"><line id="Line_7" data-name="Line 7" y1="38.639" transform="translate(19.32)" fill="none" stroke="#97b6b9" stroke-miterlimit="10" stroke-width="3"></line><line id="Line_8" data-name="Line 8" x2="38.639" transform="translate(0 19.319)" fill="none" stroke="#97b6b9" stroke-miterlimit="10" stroke-width="3"></line></g></g><g id="Group_2110" data-name="Group 2110" transform="translate(174.83 977.633)"><g id="Group_2109" data-name="Group 2109"><line id="Line_11" data-name="Line 11" y1="38.639" transform="translate(19.32)" fill="none" stroke="#97b6b9" stroke-miterlimit="10" stroke-width="3"></line><line id="Line_12" data-name="Line 12" x2="38.639" transform="translate(0 19.319)" fill="none" stroke="#97b6b9" stroke-miterlimit="10" stroke-width="3"></line></g></g><g id="Group_2111" data-name="Group 2111" transform="translate(155.531 262.009)"><line id="Line_13" data-name="Line 13" y1="38.639" transform="translate(19.32)" fill="none" stroke="#ffe164" stroke-linecap="round" stroke-miterlimit="10" stroke-width="3"></line><line id="Line_14" data-name="Line 14" x2="38.639" transform="translate(0 19.319)" fill="none" stroke="#ffe164" stroke-linecap="round" stroke-miterlimit="10" stroke-width="3"></line></g></g></g></svg>