<svg xmlns="http://www.w3.org/2000/svg" width="92" height="92" viewBox="0 0 92 92"><g id="Group_5512" data-name="Group 5512" transform="translate(-702 -307)"><path id="Path_9016" data-name="Path 9016" d="M703,349v12a10.113,10.113,0,0,0,10.132,10h70A9.889,9.889,0,0,0,793,361V349Z" transform="translate(0 0)" fill="#fff" stroke="rgba(0,0,0,0)" stroke-width="1"></path><path id="Path_9017" data-name="Path 9017" d="M793.132,352V318a10,10,0,0,0-10-10h-70a10,10,0,0,0-10,10v34Z" transform="translate(0 0)" fill="#6c7cfb" stroke="rgba(0,0,0,0)" stroke-width="1"></path><rect id="Rectangle_2131" data-name="Rectangle 2131" width="90" height="63" rx="10" transform="translate(703 308)" stroke-width="2" stroke="#000" stroke-linecap="round" stroke-linejoin="round" fill="none"></rect><rect id="Rectangle_2132" data-name="Rectangle 2132" width="60" height="12" rx="4" transform="translate(718.132 386)" fill="#e79c91" stroke="rgba(0,0,0,0)" stroke-width="1"></rect><rect id="Rectangle_2133" data-name="Rectangle 2133" width="24" height="15" transform="translate(736.132 371)" fill="#e79c91" stroke="rgba(0,0,0,0)" stroke-width="1"></rect><path id="Path_9804" data-name="Path 9804" d="M3.354,0H56.178a3.354,3.354,0,0,1,3.354,3.354V8.385a3.354,3.354,0,0,1-3.354,3.354H3.354A3.354,3.354,0,0,1,0,8.385V3.354A3.354,3.354,0,0,1,3.354,0Z" transform="translate(718.093 386.261)" fill="#6c7cfb" stroke="#000" stroke-linecap="round" stroke-width="2"></path><rect id="Rectangle_2135" data-name="Rectangle 2135" width="24" height="15" transform="translate(736 371)" stroke-width="2" stroke="#000" stroke-linecap="round" stroke-linejoin="round" fill="#6c7cfb"></rect></g></svg>