<svg xmlns="http://www.w3.org/2000/svg" width="94.5" height="88" viewBox="0 0 94.5 88"><g id="Group_5513" data-name="Group 5513" transform="translate(-101 -110)"><path id="Path_9393" data-name="Path 9393" d="M149.777,123v67h32.44c0,3,2.629,6.53,6.28,6.53a6.408,6.408,0,0,0,6.28-6.695V123Z" fill="#eee"></path><path id="Path_9394" data-name="Path 9394" d="M111,123v67h71.217c0,3,2.74,6.53,6.392,6.53A6.5,6.5,0,0,0,195,189.835V123Z" fill="none" stroke="#000" stroke-linecap="round" stroke-linejoin="round" stroke-width="1"></path><path id="Path_9395" data-name="Path 9395" d="M182.217,190h-71.44V123h64V111h-73v79a7,7,0,0,0,7,7H188.3S182.217,197,182.217,190Z" fill="#6c7cfb"></path><path id="Path_9396" data-name="Path 9396" d="M182.217,190H111V123h64V111H102v79a6.813,6.813,0,0,0,6.777,7H188.3S182.217,197,182.217,190Z" fill="none" stroke="#000" stroke-linecap="round" stroke-linejoin="round" stroke-width="2"></path><line id="Line_171" data-name="Line 171" x2="62" transform="translate(122 131)" fill="none" stroke="#000" stroke-linecap="round" stroke-linejoin="round" stroke-width="2"></line><line id="Line_172" data-name="Line 172" x2="62" transform="translate(122 139)" fill="none" stroke="#000" stroke-linecap="round" stroke-linejoin="round" stroke-width="2"></line><line id="Line_173" data-name="Line 173" x2="62" transform="translate(122 174)" fill="none" stroke="#000" stroke-linecap="round" stroke-linejoin="round" stroke-width="2"></line><line id="Line_174" data-name="Line 174" x2="62" transform="translate(122 182)" fill="none" stroke="#000" stroke-linecap="round" stroke-linejoin="round" stroke-width="2"></line><line id="Line_175" data-name="Line 175" x2="32" transform="translate(152 148)" fill="none" stroke="#000" stroke-linecap="round" stroke-linejoin="round" stroke-width="2"></line><line id="Line_176" data-name="Line 176" x2="32" transform="translate(152 155)" fill="none" stroke="#000" stroke-linecap="round" stroke-linejoin="round" stroke-width="2"></line><line id="Line_177" data-name="Line 177" x2="32" transform="translate(152 163)" fill="none" stroke="#000" stroke-linecap="round" stroke-linejoin="round" stroke-width="2"></line><rect id="Rectangle_2311" data-name="Rectangle 2311" width="19" height="15" transform="translate(121.777 148)" fill="#6c7cfb"></rect><rect id="Rectangle_2312" data-name="Rectangle 2312" width="19" height="15" transform="translate(122 148)" stroke-width="1" stroke="#000" stroke-linecap="round" stroke-linejoin="round" fill="none"></rect></g></svg>