<svg xmlns="http://www.w3.org/2000/svg" width="60.446" height="58.561" viewBox="0 0 60.446 58.561"><g id="Group_5517" data-name="Group 5517" transform="translate(-300 -2905)"><path id="Path_9497" data-name="Path 9497" d="M331.789,2925.875l-4.289-3.991a1.636,1.636,0,0,0-1.167-.408H303.274v-10.684h27.14l5.161-4.4h21.746a1.257,1.257,0,0,1,1.257,1.257v18.225Z" transform="translate(-0.845 -0.146)" fill="#6777ef"></path><path id="Path_9498" data-name="Path 9498" d="M331.688,2925.482l-4.289-3.992a1.64,1.64,0,0,0-1.167-.407H303V2910.4h27.312l5.161-4.4h21.746c.694,0,1.085.81,1.085,1.5v17.979Z" transform="translate(-0.743 0)" fill="none" stroke="#000" stroke-linecap="round" stroke-linejoin="round" stroke-width="2"></path><path id="Path_9499" data-name="Path 9499" d="M335.133,2931.076l-4.289-3.991a1.636,1.636,0,0,0-1.167-.408h-17.4v-6.284h44.62v10.684Z" transform="translate(-4.189 -5.348)" fill="#6777ef"></path><path id="Path_9500" data-name="Path 9500" d="M335.032,2930.684l-4.289-3.992a1.638,1.638,0,0,0-1.167-.407H312V2920h44.62v10.684Z" transform="translate(-4.087 -5.202)" fill="none" stroke="#000" stroke-linecap="round" stroke-linejoin="round" stroke-width="2"></path><path id="Path_9501" data-name="Path 9501" d="M378.9,2937.392H355.274v37.079H378.9a1.035,1.035,0,0,0,.888-.863v-35.281A1.114,1.114,0,0,0,378.9,2937.392Z" transform="translate(-20.165 -11.664)" fill="#6777ef"></path><path id="Path_9502" data-name="Path 9502" d="M301.738,2930h23.75a1.658,1.658,0,0,1,1.167.436l4.289,3.963h27.786c.388,0,.715.795.715,1.182v35.28a.646.646,0,0,1-.715.616H301.738a.666.666,0,0,1-.738-.616v-40.119A.77.77,0,0,1,301.738,2930Z" transform="translate(0 -8.917)" fill="none" stroke="#000" stroke-linecap="round" stroke-linejoin="round" stroke-width="2"></path></g></svg>