<?xml version="1.0" standalone="no"?>
<svg xmlns:xlink="http://www.w3.org/1999/xlink" id="wave" style="transform:rotate(0deg); transition: 0.3s" viewBox="0 0 1440 240" version="1.1" xmlns="http://www.w3.org/2000/svg"><defs><linearGradient id="sw-gradient-0" x1="0" x2="0" y1="1" y2="0"><stop stop-color="rgba(243, 106, 62, 1)" offset="0%"/><stop stop-color="rgba(255, 179, 11, 1)" offset="100%"/></linearGradient></defs><path style="transform:translate(0, 0px); opacity:1" fill="url(#sw-gradient-0)" d="M0,48L34.3,76C68.6,104,137,160,206,168C274.3,176,343,136,411,116C480,96,549,96,617,88C685.7,80,754,64,823,72C891.4,80,960,112,1029,120C1097.1,128,1166,112,1234,92C1302.9,72,1371,48,1440,44C1508.6,40,1577,56,1646,64C1714.3,72,1783,72,1851,96C1920,120,1989,168,2057,188C2125.7,208,2194,200,2263,188C2331.4,176,2400,160,2469,136C2537.1,112,2606,80,2674,84C2742.9,88,2811,128,2880,128C2948.6,128,3017,88,3086,76C3154.3,64,3223,80,3291,96C3360,112,3429,128,3497,128C3565.7,128,3634,112,3703,104C3771.4,96,3840,96,3909,88C3977.1,80,4046,64,4114,80C4182.9,96,4251,144,4320,144C4388.6,144,4457,96,4526,64C4594.3,32,4663,16,4731,24C4800,32,4869,64,4903,80L4937.1,96L4937.1,240L4902.9,240C4868.6,240,4800,240,4731,240C4662.9,240,4594,240,4526,240C4457.1,240,4389,240,4320,240C4251.4,240,4183,240,4114,240C4045.7,240,3977,240,3909,240C3840,240,3771,240,3703,240C3634.3,240,3566,240,3497,240C3428.6,240,3360,240,3291,240C3222.9,240,3154,240,3086,240C3017.1,240,2949,240,2880,240C2811.4,240,2743,240,2674,240C2605.7,240,2537,240,2469,240C2400,240,2331,240,2263,240C2194.3,240,2126,240,2057,240C1988.6,240,1920,240,1851,240C1782.9,240,1714,240,1646,240C1577.1,240,1509,240,1440,240C1371.4,240,1303,240,1234,240C1165.7,240,1097,240,1029,240C960,240,891,240,823,240C754.3,240,686,240,617,240C548.6,240,480,240,411,240C342.9,240,274,240,206,240C137.1,240,69,240,34,240L0,240Z"/></svg>